<?xml version="1.0" encoding="utf-8"?>
<svg viewBox="1818.995 1554.905 411.25 411.25" xmlns="http://www.w3.org/2000/svg">
  <g>
    <path d="M 2147.12 1554.905 L 1902.12 1554.905 C 1880.081 1554.932 1858.952 1563.698 1843.37 1579.28 C 1827.788 1594.862 1819.022 1615.991 1818.995 1638.03 L 1818.995 1883.03 C 1819.022 1905.069 1827.788 1926.198 1843.37 1941.78 C 1858.952 1957.362 1880.081 1966.128 1902.12 1966.155 L 2147.12 1966.155 C 2169.159 1966.128 2190.288 1957.362 2205.87 1941.78 C 2221.452 1926.198 2230.218 1905.069 2230.245 1883.03 L 2230.245 1638.03 C 2230.217 1615.991 2221.452 1594.862 2205.87 1579.28 C 2190.288 1563.698 2169.159 1554.932 2147.12 1554.905 Z M 2203.995 1883.025 C 2203.975 1898.103 2197.979 1912.56 2187.315 1923.22 C 2176.655 1933.884 2162.198 1939.88 2147.12 1939.9 L 1902.12 1939.9 C 1887.042 1939.88 1872.585 1933.884 1861.925 1923.22 C 1851.261 1912.56 1845.265 1898.103 1845.245 1883.025 L 1845.245 1638.025 C 1845.264 1622.947 1851.26 1608.49 1861.925 1597.83 C 1872.585 1587.166 1887.042 1581.17 1902.12 1581.15 L 2147.12 1581.15 C 2162.198 1581.169 2176.655 1587.165 2187.315 1597.83 C 2197.979 1608.49 2203.975 1622.947 2203.995 1638.025 L 2203.995 1883.025 Z"/>
    <path d="M 1805.638 1801.296 L 2118.544 1801.296 L 2118.544 1718.151 L 1805.638 1718.151 M 2105.861 1786.744 L 1818.807 1786.744 L 1818.807 1733.987 L 2105.861 1733.987 L 2105.861 1786.744 Z" fill-opacity=".99471" style="" transform="matrix(0, -1, 1, 0, 202.367432, 3721.814453)"/>
    <path d="M 1930.696 1802.909 L 2243.602 1802.909 L 2243.602 1719.764 L 1930.696 1719.764" fill-opacity=".99471" style="" transform="matrix(0, -1, 1, 0, 325.8125, 3848.485596)"/>
  </g>
</svg>