<?xml version="1.0" encoding="utf-8"?>
<svg viewBox="2309.441 1558.111 411.25 413.723" xmlns="http://www.w3.org/2000/svg">
  <g transform="matrix(0, 1, -1, 0, 4281.274902, -748.855896)">
    <path d="M 2401.751 1708.134 L 2629.557 1708.134 L 2629.557 1649.509 L 2401.751 1649.509 M 2620.322 1697.873 L 2411.337 1697.873 L 2411.337 1660.675 L 2620.322 1660.675 L 2620.322 1697.873 Z" fill-opacity=".99471" style=""/>
    <path d="M 2400.576 1796.312 L 2628.383 1796.312 L 2628.383 1737.687 L 2400.576 1737.687" fill-opacity=".99471" style=""/>
    <path d="M 2400.574 1882.91 L 2628.381 1882.91 L 2628.381 1824.285 L 2400.574 1824.285" fill-opacity=".99471" style=""/>
  </g>
  <path d="M 2637.566 1560.584 C 2786.645 1556.199 2460.532 1558.585 2392.566 1560.584 C 2370.527 1560.611 2349.398 1569.377 2333.816 1584.959 C 2318.234 1600.541 2309.468 1621.67 2309.441 1643.709 L 2309.441 1888.709 C 2309.468 1910.748 2318.234 1931.877 2333.816 1947.459 C 2349.398 1963.041 2370.527 1971.807 2392.566 1971.834 L 2637.566 1971.834 C 2659.605 1971.807 2680.734 1963.041 2696.316 1947.459 C 2711.898 1931.877 2720.664 1910.748 2720.691 1888.709 L 2720.691 1643.709 C 2720.663 1621.67 2711.898 1600.541 2696.316 1584.959 C 2680.734 1569.377 2659.605 1560.611 2637.566 1560.584 Z M 2694.441 1888.704 C 2694.421 1903.782 2688.425 1918.239 2677.761 1928.899 C 2667.101 1939.563 2652.644 1945.559 2637.566 1945.579 L 2392.566 1945.579 C 2377.488 1945.559 2363.031 1939.563 2352.371 1928.899 C 2341.707 1918.239 2335.711 1903.782 2335.691 1888.704 L 2335.691 1643.704 C 2335.71 1628.626 2341.706 1614.169 2352.371 1603.509 C 2363.031 1592.845 2377.488 1586.849 2392.566 1586.829 L 2637.566 1586.829 C 2652.644 1586.848 2667.101 1592.844 2677.761 1603.509 C 2688.425 1614.169 2694.421 1628.626 2694.441 1643.704 L 2694.441 1888.704 Z"/>
</svg>