<?xml version="1.0" encoding="utf-8"?>
<svg viewBox="144.375 144.375 411.25 411.25" xmlns="http://www.w3.org/2000/svg">
  <g>
    <path d="M 334.232 401.341 C 332.102 344.811 368.452 355.935 394.786 320.815 C 425.678 280.075 315.098 239.022 300.25 311.097 L 268.327 308.175 C 277.264 252.41 361.684 234.446 409.458 267.865 C 431.84 283.453 438.604 308.115 423.771 328.465 C 399.976 361.083 365.265 354.091 364.099 401.344 L 334.234 401.344 L 334.232 401.341 Z M 332.347 448.937 L 332.347 421.898 L 367.692 421.898 L 367.692 448.937 L 332.347 448.937 Z" style=""/>
    <g>
      <path d="M 472.5 144.375 L 227.5 144.375 C 205.461 144.402 184.332 153.168 168.75 168.75 C 153.168 184.332 144.402 205.461 144.375 227.5 L 144.375 472.5 C 144.402 494.539 153.168 515.668 168.75 531.25 C 184.332 546.832 205.461 555.598 227.5 555.625 L 472.5 555.625 C 494.539 555.598 515.668 546.832 531.25 531.25 C 546.832 515.668 555.598 494.539 555.625 472.5 L 555.625 227.5 C 555.597 205.461 546.832 184.332 531.25 168.75 C 515.668 153.168 494.539 144.402 472.5 144.375 Z M 529.375 472.495 C 529.355 487.573 523.359 502.03 512.695 512.69 C 502.035 523.354 487.578 529.35 472.5 529.37 L 227.5 529.37 C 212.422 529.35 197.965 523.354 187.305 512.69 C 176.641 502.03 170.645 487.573 170.625 472.495 L 170.625 227.495 C 170.644 212.417 176.64 197.96 187.305 187.3 C 197.965 176.636 212.422 170.64 227.5 170.62 L 472.5 170.62 C 487.578 170.639 502.035 176.635 512.695 187.3 C 523.359 197.96 529.355 212.417 529.375 227.495 L 529.375 472.495 Z"/>
      <g>
        <g style="" transform="matrix(0.604965, 0, 0, 0.612261, -745.139771, 520.496582)"/>
      </g>
    </g>
  </g>
</svg>