<?xml version="1.0" encoding="utf-8"?>
<svg viewBox="144.375 144.375 411.25 411.25" xmlns="http://www.w3.org/2000/svg">
  <g>
    <path d="M 472.5 144.375 L 227.5 144.375 C 205.461 144.402 184.332 153.168 168.75 168.75 C 153.168 184.332 144.402 205.461 144.375 227.5 L 144.375 472.5 C 144.402 494.539 153.168 515.668 168.75 531.25 C 184.332 546.832 205.461 555.598 227.5 555.625 L 472.5 555.625 C 494.539 555.598 515.668 546.832 531.25 531.25 C 546.832 515.668 555.598 494.539 555.625 472.5 L 555.625 227.5 C 555.597 205.461 546.832 184.332 531.25 168.75 C 515.668 153.168 494.539 144.402 472.5 144.375 Z M 529.375 472.495 C 529.355 487.573 523.359 502.03 512.695 512.69 C 502.035 523.354 487.578 529.35 472.5 529.37 L 227.5 529.37 C 212.422 529.35 197.965 523.354 187.305 512.69 C 176.641 502.03 170.645 487.573 170.625 472.495 L 170.625 227.495 C 170.644 212.417 176.64 197.96 187.305 187.3 C 197.965 176.636 212.422 170.64 227.5 170.62 L 472.5 170.62 C 487.578 170.639 502.035 176.635 512.695 187.3 C 523.359 197.96 529.355 212.417 529.375 227.495 L 529.375 472.495 Z"/>
    <path d="M 372.352 478 L 327.769 478 C 323.607 478 320.247 474.638 320.247 470.478 L 320.247 446.87 C 314.163 444.99 308.281 442.549 302.678 439.588 L 285.989 456.273 C 283.069 459.235 278.266 459.235 275.345 456.273 L 243.811 424.744 C 240.849 421.823 240.849 417.022 243.811 414.101 L 260.498 397.416 C 257.537 391.814 255.096 385.932 253.215 379.85 L 229.604 379.85 C 225.362 379.809 222 376.407 222 372.247 L 222 327.672 C 222 323.51 225.362 320.15 229.523 320.15 L 253.135 320.15 C 255.016 314.068 257.417 308.185 260.418 302.584 L 243.731 285.899 C 240.768 282.978 240.768 278.177 243.731 275.256 L 275.265 243.727 C 278.186 240.765 282.988 240.765 285.909 243.727 L 302.597 260.412 C 308.2 257.451 314.083 255.01 320.165 253.13 L 320.165 229.522 C 320.165 225.361 323.529 222 327.689 222 L 372.311 222 C 376.472 222 379.835 225.362 379.835 229.522 L 379.835 253.13 C 385.917 255.01 391.8 257.451 397.403 260.412 L 414.091 243.727 C 417.012 240.765 421.814 240.765 424.735 243.727 L 456.269 275.256 C 459.232 278.177 459.232 282.978 456.269 285.899 L 439.582 302.584 C 442.543 308.185 444.984 314.068 446.865 320.15 L 470.477 320.15 C 474.64 320.15 478 323.512 478 327.672 L 478 372.287 C 478 376.448 474.638 379.808 470.477 379.808 L 446.865 379.808 C 444.984 385.891 442.543 391.772 439.582 397.374 L 456.269 414.059 C 459.232 416.98 459.232 421.782 456.269 424.703 L 424.735 456.231 C 423.334 457.631 421.414 458.432 419.413 458.432 C 417.411 458.432 415.491 457.631 414.09 456.231 L 397.403 439.546 C 391.8 442.507 385.916 444.947 379.833 446.828 L 379.833 470.437 C 379.914 474.637 376.513 477.999 372.351 477.999 L 372.352 478 Z M 335.294 462.956 L 364.868 462.956 L 364.868 441.149 C 364.868 437.667 367.23 434.667 370.633 433.827 C 379.236 431.745 387.4 428.345 394.882 423.784 C 397.845 421.983 401.646 422.423 404.126 424.905 L 419.534 440.309 L 440.425 419.422 L 425.017 404.017 C 422.576 401.577 422.096 397.735 423.897 394.775 C 428.459 387.253 431.821 379.131 433.941 370.529 C 434.781 367.166 437.783 364.765 441.264 364.765 L 463.075 364.765 L 463.075 335.196 L 441.264 335.196 C 437.783 335.196 434.781 332.834 433.941 329.433 C 431.86 320.83 428.457 312.667 423.897 305.186 C 422.096 302.224 422.536 298.385 425.017 295.944 L 440.425 280.539 L 419.534 259.652 L 404.126 275.057 C 401.687 277.497 397.843 277.977 394.882 276.176 C 387.359 271.615 379.236 268.255 370.633 266.134 C 367.27 265.295 364.868 262.295 364.868 258.812 L 364.868 236.962 L 335.294 236.962 L 335.294 258.77 C 335.294 262.252 332.931 265.252 329.53 266.091 C 320.926 268.173 312.762 271.573 305.278 276.135 C 302.318 277.935 298.515 277.496 296.036 275.014 L 280.628 259.609 L 259.737 280.497 L 275.145 295.901 C 277.585 298.342 278.066 302.183 276.265 305.144 C 271.702 312.665 268.342 320.829 266.222 329.39 C 265.381 332.752 262.38 335.152 258.897 335.152 L 237.046 335.155 L 237.046 364.724 L 258.857 364.724 C 262.34 364.724 265.34 367.086 266.18 370.488 C 268.262 379.09 271.663 387.253 276.225 394.734 C 278.025 397.696 277.586 401.536 275.103 403.976 L 259.697 419.381 L 280.587 440.268 L 295.994 424.863 C 298.436 422.423 302.278 421.943 305.238 423.743 C 312.722 428.305 320.885 431.665 329.49 433.786 C 332.852 434.626 335.252 437.626 335.252 441.108 L 335.254 462.956 L 335.294 462.956 Z" style=""/>
    <path d="M 350.06 408.775 C 317.645 408.775 291.234 382.407 291.234 349.96 C 291.234 317.513 317.648 291.144 350.06 291.144 C 382.474 291.144 408.886 317.552 408.886 349.96 C 408.886 382.367 382.474 408.775 350.06 408.775 Z M 350.06 306.225 C 325.929 306.225 306.32 325.831 306.32 349.958 C 306.32 374.085 325.929 393.692 350.06 393.692 C 374.192 393.692 393.801 374.085 393.801 349.958 C 393.801 325.831 374.192 306.225 350.06 306.225 Z" style=""/>
  </g>
</svg>