<?xml version="1.0" encoding="utf-8"?>
<svg viewBox="144.375 144.375 411.25 411.25" xmlns="http://www.w3.org/2000/svg">
  <path d="M 451.895 243.843 C 421.018 215.759 379.278 200 335.761 200 C 292.246 200 250.51 215.759 219.63 243.843 C 216.958 246.278 216.95 250.232 219.608 252.676 C 222.268 255.122 226.584 255.131 229.254 252.698 C 257.569 226.943 295.854 212.488 335.755 212.488 C 375.656 212.488 413.942 226.943 442.257 252.698 C 460.941 269.729 474.384 290.978 481.227 314.295 C 488.069 337.612 488.069 362.171 481.227 385.49 C 474.385 408.808 460.941 430.058 442.257 447.086 C 413.942 472.844 375.656 487.298 335.755 487.298 C 295.854 487.298 257.569 472.844 229.254 447.086 C 226.928 444.964 224.703 442.745 222.536 440.493 L 247.726 440.493 L 247.726 440.496 C 251.478 440.473 254.507 437.681 254.507 434.246 C 254.507 430.81 251.478 428.018 247.726 427.998 L 206.818 427.998 C 203.051 427.998 200 430.795 200 434.246 L 200 471.736 C 200 475.185 203.053 477.982 206.818 477.982 C 210.583 477.982 213.637 475.185 213.637 471.736 L 213.637 450.164 C 215.581 452.136 217.577 454.068 219.63 455.942 C 250.402 484.127 292.13 499.971 335.647 500 C 379.161 500.028 420.913 484.236 451.724 456.088 C 482.54 427.946 499.902 389.75 500 349.886 C 500.051 330.172 495.827 310.645 487.567 292.442 C 479.309 274.234 467.18 257.714 451.888 243.842 L 451.895 243.843 Z"/>
  <path d="M 348.404 354.757 C 357.305 362.422 365.611 369.442 371.793 372.982 L 371.792 372.982 C 380.626 377.98 391.362 380.826 402.499 381.12 C 414.196 381.093 425.327 377.415 433.118 371.002 C 441.225 364.301 445.084 355.384 443.736 346.47 C 442.738 339.557 438.6 333.093 431.99 328.121 C 425.382 323.151 416.688 319.964 407.313 319.076 C 394.436 318.288 381.652 321.231 371.688 327.28 C 364.768 331.545 356.777 338.588 348.306 346.152 C 340.03 339.036 331.723 332.058 324.908 327.737 C 317.894 323.291 309.856 319.141 298.622 318.885 L 298.622 318.884 C 288.139 318.749 277.965 321.512 270.12 326.63 C 262.275 331.746 257.327 338.844 256.256 346.516 C 254.929 355.424 258.796 364.327 266.9 371.018 C 274.692 377.421 285.814 381.093 297.498 381.119 C 308.728 381.119 317.559 377.071 324.714 373.111 C 331.778 369.2 340.098 362.125 348.404 354.757 Z M 376.515 331.522 C 384.878 326.421 395.623 323.928 406.452 324.573 C 414.136 325.31 421.256 327.931 426.666 332.012 C 432.073 336.093 435.454 341.395 436.26 347.065 C 437.38 354.417 434.203 361.774 427.523 367.306 C 421.158 372.551 412.059 375.561 402.499 375.587 C 393.037 375.285 383.932 372.851 376.412 368.617 C 370.624 365.302 361.896 357.865 353.264 350.425 C 361.467 343.098 369.9 335.6 376.515 331.522 Z M 320.192 368.691 C 313.719 372.274 306.49 375.588 297.498 375.588 C 287.948 375.562 278.857 372.558 272.49 367.321 C 265.811 361.798 262.63 354.452 263.732 347.105 C 264.578 340.944 268.471 335.227 274.677 331.04 C 280.879 326.855 288.96 324.492 297.378 324.405 C 297.713 324.405 298.053 324.41 298.391 324.416 C 306.817 324.608 312.906 327.432 319.998 331.928 C 326.639 336.14 335.078 343.277 343.447 350.487 C 335.15 357.868 326.84 365.011 320.193 368.691 L 320.192 368.691 Z" style=""/>
  <path d="M 472.5 144.375 L 227.5 144.375 C 205.461 144.402 184.332 153.168 168.75 168.75 C 153.168 184.332 144.402 205.461 144.375 227.5 L 144.375 472.5 C 144.402 494.539 153.168 515.668 168.75 531.25 C 184.332 546.832 205.461 555.598 227.5 555.625 L 472.5 555.625 C 494.539 555.598 515.668 546.832 531.25 531.25 C 546.832 515.668 555.598 494.539 555.625 472.5 L 555.625 227.5 C 555.597 205.461 546.832 184.332 531.25 168.75 C 515.668 153.168 494.539 144.402 472.5 144.375 Z M 529.375 472.495 C 529.355 487.573 523.359 502.03 512.695 512.69 C 502.035 523.354 487.578 529.35 472.5 529.37 L 227.5 529.37 C 212.422 529.35 197.965 523.354 187.305 512.69 C 176.641 502.03 170.645 487.573 170.625 472.495 L 170.625 227.495 C 170.644 212.417 176.64 197.96 187.305 187.3 C 197.965 176.636 212.422 170.64 227.5 170.62 L 472.5 170.62 C 487.578 170.639 502.035 176.635 512.695 187.3 C 523.359 197.96 529.355 212.417 529.375 227.495 L 529.375 472.495 Z"/>
</svg>