<?xml version="1.0" encoding="utf-8"?>
<svg viewBox="1358.615 541.718 411.25 411.25" xmlns="http://www.w3.org/2000/svg">
  <g transform="matrix(1, 0, 0, 1, 1214.239746, 397.342682)">
    <g transform="matrix(0.49265, 0, 0, 0.516939, -800.795959, -275.773437)" style="">
      <path d="M 2152.139 1488.976 L 2519.729 1488.976 C 2537.717 1488.976 2552.397 1474.324 2552.397 1456.308 L 2552.397 1057.098 C 2552.397 1056.864 2552.28 1056.676 2552.256 1056.469 C 2552.186 1055.465 2552.045 1054.461 2551.674 1053.528 C 2551.186 1052.36 2550.483 1051.336 2549.596 1050.469 L 2434.446 934.849 C 2433.583 933.986 2432.555 933.287 2431.434 932.818 C 2430.313 932.353 2429.079 932.095 2427.841 932.095 L 2152.131 932.099 C 2134.143 932.099 2119.463 946.751 2119.463 964.767 L 2119.463 1456.337 C 2119.463 1474.325 2134.143 1488.978 2152.131 1488.978 L 2152.139 1488.976 Z M 2533.729 1343.186 L 2138.139 1343.186 L 2138.139 1160.276 L 2533.709 1160.346 L 2533.709 1343.186 L 2533.729 1343.186 Z M 2519.729 1470.306 L 2152.139 1470.306 C 2144.416 1470.306 2138.139 1464.029 2138.139 1456.306 L 2138.139 1361.829 L 2533.709 1361.829 L 2533.709 1456.306 C 2533.732 1464.029 2527.455 1470.306 2519.732 1470.306 L 2519.729 1470.306 Z M 2437.198 964.016 L 2520.593 1047.735 L 2437.198 1047.735 L 2437.198 964.016 Z M 2138.138 964.762 C 2138.138 957.039 2144.415 950.762 2152.138 950.762 L 2418.518 950.762 L 2418.518 1057.092 C 2418.518 1062.248 2422.717 1066.424 2427.85 1066.424 L 2533.71 1066.424 L 2533.71 1141.674 L 2145.72 1141.678 L 2138.138 1141.631 L 2138.138 964.762 Z"/>
      <path d="M 2307.228 1284.394 C 2312.665 1284.394 2317.611 1283.414 2322.068 1281.453 C 2327.74 1285.281 2330.794 1287.285 2331.24 1287.496 C 2333.224 1288.593 2335.251 1289.433 2337.329 1290.062 L 2342.392 1280.332 C 2338.427 1278.91 2334.74 1276.972 2331.357 1274.57 C 2334.087 1271.375 2336.072 1268.058 2337.306 1264.652 C 2338.939 1260.195 2339.779 1254.992 2339.779 1249.113 C 2339.779 1237.984 2336.814 1229.304 2330.888 1223.121 C 2324.962 1216.937 2316.935 1213.836 2306.829 1213.836 C 2296.634 1213.836 2288.536 1216.937 2282.587 1223.121 C 2276.638 1229.305 2273.65 1237.984 2273.65 1249.113 C 2273.65 1260.289 2276.615 1268.945 2282.564 1275.129 C 2288.517 1281.313 2296.728 1284.395 2307.228 1284.395 L 2307.228 1284.394 Z M 2293.111 1231.472 C 2296.611 1227.55 2301.162 1225.617 2306.759 1225.617 C 2312.36 1225.617 2316.907 1227.554 2320.384 1231.449 C 2323.86 1235.347 2325.587 1241.226 2325.587 1249.113 C 2325.587 1252.941 2325.145 1256.3 2324.259 1259.261 C 2323.372 1262.225 2322.044 1264.722 2320.27 1266.796 C 2316.142 1263.694 2311.825 1261.358 2307.297 1259.819 L 2303.422 1267.683 C 2306.317 1268.71 2309.137 1270.132 2311.938 1271.952 C 2310.165 1272.604 2308.297 1272.932 2306.313 1272.932 C 2300.969 1272.932 2296.559 1270.948 2293.083 1267.007 C 2289.606 1263.065 2287.856 1257.089 2287.856 1249.109 C 2287.86 1241.273 2289.61 1235.394 2293.11 1231.472 L 2293.111 1231.472 Z"/>
      <path d="M 2202.191 1229.956 L 2217.406 1290.46 L 2232.34 1290.46 L 2247.598 1229.956 L 2247.598 1290.46 L 2262.02 1290.46 L 2262.02 1213.577 L 2238.735 1213.577 L 2224.942 1266.03 L 2210.989 1213.577 L 2187.774 1213.577 L 2187.774 1290.46 L 2202.192 1290.46 L 2202.191 1229.956 Z"/>
      <path d="M 2447.473 1290.278 L 2462.989 1290.278 L 2462.989 1226.415 L 2485.739 1226.415 L 2485.739 1213.395 L 2424.653 1213.395 L 2424.653 1226.415 L 2447.473 1226.415 L 2447.473 1290.278 Z"/>
      <path d="M 2374.638 1290.399 L 2390.154 1290.399 L 2390.154 1226.536 L 2412.904 1226.536 L 2412.904 1213.516 L 2351.818 1213.516 L 2351.818 1226.536 L 2374.638 1226.536 L 2374.638 1290.399 Z"/>
    </g>
    <path d="M 472.5 144.375 L 227.5 144.375 C 205.461 144.402 184.332 153.168 168.75 168.75 C 153.168 184.332 144.402 205.461 144.375 227.5 L 144.375 472.5 C 144.402 494.539 153.168 515.668 168.75 531.25 C 184.332 546.832 205.461 555.598 227.5 555.625 L 472.5 555.625 C 494.539 555.598 515.668 546.832 531.25 531.25 C 546.832 515.668 555.598 494.539 555.625 472.5 L 555.625 227.5 C 555.597 205.461 546.832 184.332 531.25 168.75 C 515.668 153.168 494.539 144.402 472.5 144.375 Z M 529.375 472.495 C 529.355 487.573 523.359 502.03 512.695 512.69 C 502.035 523.354 487.578 529.35 472.5 529.37 L 227.5 529.37 C 212.422 529.35 197.965 523.354 187.305 512.69 C 176.641 502.03 170.645 487.573 170.625 472.495 L 170.625 227.495 C 170.644 212.417 176.64 197.96 187.305 187.3 C 197.965 176.636 212.422 170.64 227.5 170.62 L 472.5 170.62 C 487.578 170.639 502.035 176.635 512.695 187.3 C 523.359 197.96 529.355 212.417 529.375 227.495 L 529.375 472.495 Z"/>
  </g>
</svg>