<?xml version="1.0" encoding="utf-8"?>
<svg viewBox="1800 541.718 411.25 411.25" xmlns="http://www.w3.org/2000/svg">
  <g transform="matrix(1, 0, 0, 1, 1655.625, 397.342682)">
    <path d="M 472.5 144.375 L 227.5 144.375 C 205.461 144.402 184.332 153.168 168.75 168.75 C 153.168 184.332 144.402 205.461 144.375 227.5 L 144.375 472.5 C 144.402 494.539 153.168 515.668 168.75 531.25 C 184.332 546.832 205.461 555.598 227.5 555.625 L 472.5 555.625 C 494.539 555.598 515.668 546.832 531.25 531.25 C 546.832 515.668 555.598 494.539 555.625 472.5 L 555.625 227.5 C 555.597 205.461 546.832 184.332 531.25 168.75 C 515.668 153.168 494.539 144.402 472.5 144.375 Z M 529.375 472.495 C 529.355 487.573 523.359 502.03 512.695 512.69 C 502.035 523.354 487.578 529.35 472.5 529.37 L 227.5 529.37 C 212.422 529.35 197.965 523.354 187.305 512.69 C 176.641 502.03 170.645 487.573 170.625 472.495 L 170.625 227.495 C 170.644 212.417 176.64 197.96 187.305 187.3 C 197.965 176.636 212.422 170.64 227.5 170.62 L 472.5 170.62 C 487.578 170.639 502.035 176.635 512.695 187.3 C 523.359 197.96 529.355 212.417 529.375 227.495 L 529.375 472.495 Z"/>
    <path d="M 444.339 499.166 C 453.57 499.166 461.106 491.315 461.106 481.664 L 461.106 267.79 C 461.106 267.664 461.046 267.563 461.033 267.453 C 460.998 266.914 460.925 266.377 460.735 265.877 C 460.483 265.251 460.122 264.703 459.668 264.238 L 400.565 202.295 C 400.122 201.833 399.594 201.459 399.02 201.207 C 398.444 200.958 397.811 200.82 397.174 200.82 L 255.661 200.822 C 246.428 200.822 238.894 208.672 238.894 218.324 L 238.894 481.679 C 238.894 491.329 246.426 499.181 255.661 499.181 L 444.334 499.179 L 444.339 499.166 Z M 248.48 323.067 L 451.524 323.104 L 451.524 421.06 L 248.48 421.06 L 248.48 323.067 Z M 401.978 217.927 L 444.782 262.779 L 401.978 262.779 L 401.978 217.927 Z M 248.48 218.326 C 248.48 214.189 251.701 210.826 255.665 210.826 L 392.401 210.826 L 392.401 267.792 C 392.401 270.554 394.557 272.791 397.191 272.791 L 451.525 272.791 L 451.525 313.106 L 252.371 313.108 L 248.48 313.083 L 248.48 218.326 Z M 248.48 481.666 L 248.48 431.05 L 451.524 431.05 L 451.524 481.666 C 451.524 485.803 448.303 489.166 444.339 489.166 L 255.665 489.166 C 251.701 489.166 248.48 485.803 248.48 481.666 Z" style=""/>
    <path d="M 317.95 384.232 C 316.417 385.645 314.596 386.344 312.477 386.344 C 309.602 386.344 307.256 385.231 305.46 383.018 C 303.663 380.806 302.764 377.081 302.764 371.869 C 302.764 366.955 303.675 363.393 305.507 361.193 C 307.341 358.994 309.712 357.893 312.646 357.893 C 314.765 357.893 316.572 358.519 318.059 359.756 C 319.545 360.993 320.515 362.682 320.98 364.83 L 328.884 362.855 C 327.985 359.555 326.632 357.016 324.835 355.254 C 321.818 352.266 317.876 350.78 313.049 350.78 C 307.504 350.78 303.038 352.68 299.638 356.481 C 296.239 360.281 294.526 365.62 294.526 372.495 C 294.526 378.995 296.215 384.107 299.605 387.857 C 302.981 391.608 307.306 393.471 312.552 393.471 C 316.791 393.471 320.3 392.382 323.067 390.195 C 325.834 388.008 327.796 384.657 328.995 380.156 L 321.246 377.593 C 320.575 380.621 319.471 382.833 317.95 384.234 L 317.95 384.232 Z" style=""/>
    <path d="M 360.024 369.955 C 358.167 368.93 355.294 367.942 351.4 366.979 C 347.508 366.016 345.064 365.104 344.058 364.216 C 343.268 363.516 342.872 362.691 342.872 361.703 C 342.872 360.627 343.291 359.777 344.141 359.14 C 345.459 358.139 347.268 357.652 349.591 357.652 C 351.843 357.652 353.532 358.114 354.646 359.051 C 355.761 359.989 356.502 361.502 356.849 363.626 L 364.837 363.264 C 364.705 359.477 363.387 356.44 360.885 354.163 C 358.383 351.888 354.633 350.75 349.675 350.75 C 346.633 350.75 344.036 351.225 341.89 352.188 C 339.735 353.15 338.093 354.538 336.955 356.375 C 335.818 358.2 335.244 360.176 335.244 362.275 C 335.244 365.538 336.453 368.312 338.885 370.587 C 340.608 372.201 343.615 373.563 347.902 374.675 C 351.233 375.537 353.364 376.137 354.298 376.474 C 355.664 376.987 356.622 377.575 357.173 378.262 C 357.725 378.95 357.999 379.774 357.999 380.75 C 357.999 382.275 357.352 383.6 356.047 384.736 C 354.742 385.875 352.801 386.436 350.239 386.436 C 347.807 386.436 345.88 385.797 344.454 384.523 C 343.029 383.248 342.07 381.248 341.602 378.523 L 333.829 379.31 C 334.356 383.935 335.948 387.449 338.631 389.859 C 341.314 392.272 345.146 393.472 350.152 393.472 C 353.588 393.472 356.451 392.971 358.763 391.958 C 361.063 390.958 362.847 389.42 364.104 387.359 C 365.361 385.295 365.997 383.083 365.997 380.708 C 365.997 378.096 365.469 375.907 364.417 374.133 C 363.338 372.381 361.89 370.981 360.022 369.955 L 360.024 369.955 Z" style=""/>
    <path d="M 387.319 382.047 L 377.306 351.482 L 368.647 351.482 L 382.779 392.772 L 391.307 392.772 L 405.474 351.482 L 396.995 351.482 L 387.319 382.047 Z" style=""/>
  </g>
</svg>