<?xml version="1.0" encoding="utf-8"?>
<svg viewBox="144.375 144.375 411.25 411.25" xmlns="http://www.w3.org/2000/svg">
  <g>
    <path d="M 472.5 144.375 L 227.5 144.375 C 205.461 144.402 184.332 153.168 168.75 168.75 C 153.168 184.332 144.402 205.461 144.375 227.5 L 144.375 472.5 C 144.402 494.539 153.168 515.668 168.75 531.25 C 184.332 546.832 205.461 555.598 227.5 555.625 L 472.5 555.625 C 494.539 555.598 515.668 546.832 531.25 531.25 C 546.832 515.668 555.598 494.539 555.625 472.5 L 555.625 227.5 C 555.597 205.461 546.832 184.332 531.25 168.75 C 515.668 153.168 494.539 144.402 472.5 144.375 Z M 529.375 472.495 C 529.355 487.573 523.359 502.03 512.695 512.69 C 502.035 523.354 487.578 529.35 472.5 529.37 L 227.5 529.37 C 212.422 529.35 197.965 523.354 187.305 512.69 C 176.641 502.03 170.645 487.573 170.625 472.495 L 170.625 227.495 C 170.644 212.417 176.64 197.96 187.305 187.3 C 197.965 176.636 212.422 170.64 227.5 170.62 L 472.5 170.62 C 487.578 170.639 502.035 176.635 512.695 187.3 C 523.359 197.96 529.355 212.417 529.375 227.495 L 529.375 472.495 Z"/>
    <path d="M 349.967 246.428 L 335.849 246.428 C 333.759 246.429 331.754 247.218 330.275 248.614 C 328.796 250.011 327.966 251.906 327.963 253.883 L 327.963 264.524 C 318.656 266.657 309.758 270.143 301.587 274.86 L 293.62 267.329 C 292.138 265.933 290.134 265.15 288.041 265.15 C 285.951 265.15 283.944 265.933 282.463 267.329 L 262.504 286.196 L 262.504 286.199 C 261.025 287.595 260.194 289.493 260.194 291.47 C 260.194 293.447 261.025 295.344 262.504 296.741 L 270.469 304.272 C 265.48 311.997 261.79 320.407 259.536 329.202 L 248.277 329.202 C 246.185 329.205 244.181 329.991 242.702 331.388 C 241.223 332.787 240.391 334.681 240.39 336.656 L 240.39 363.342 C 240.391 365.317 241.223 367.212 242.702 368.61 C 244.181 370.008 246.185 370.794 248.277 370.796 L 259.536 370.796 C 261.79 379.594 265.48 388.004 270.471 395.727 L 262.506 403.26 L 262.504 403.257 C 261.025 404.656 260.194 406.552 260.194 408.528 C 260.194 410.506 261.025 412.404 262.504 413.8 L 282.463 432.667 L 282.463 432.668 C 283.944 434.065 285.951 434.849 288.041 434.849 C 290.134 434.849 292.138 434.065 293.62 432.668 L 301.588 425.138 L 301.587 425.138 C 309.758 429.856 318.656 433.342 327.963 435.472 L 327.963 446.115 C 327.966 448.092 328.796 449.985 330.275 451.384 C 331.755 452.781 333.76 453.57 335.851 453.571 L 349.967 453.571 C 369.208 453.582 388.114 448.803 404.782 439.716 C 421.45 430.63 435.292 417.552 444.918 401.803 C 454.543 386.054 459.61 368.187 459.61 350 C 459.61 331.812 454.543 313.944 444.918 298.196 C 435.292 282.446 421.45 269.37 404.782 260.283 C 388.114 251.196 369.208 246.418 349.967 246.429 L 349.967 246.428 Z M 451.731 324.708 C 443.38 311.686 428.803 300.629 410.284 292.982 C 402.196 275.484 390.506 261.71 376.736 253.815 L 376.736 253.818 C 394.741 258.333 411.162 267.268 424.333 279.717 C 437.504 292.169 446.956 307.69 451.731 324.708 Z M 416.314 328.57 L 416.314 328.573 C 403.399 326.386 390.359 324.926 377.259 324.198 C 376.488 311.813 374.943 299.483 372.629 287.27 C 384.445 288.813 396.003 291.768 407.03 296.07 C 411.569 306.487 414.689 317.409 416.314 328.573 L 416.314 328.57 Z M 412.634 298.446 C 434.83 308.527 450.309 323.802 454.206 341.305 C 447.726 336.332 435.772 332.347 420.827 329.409 L 420.827 329.41 C 419.363 318.826 416.616 308.437 412.634 298.446 Z M 417.924 349.998 L 417.92 350 C 417.917 355.712 417.575 361.419 416.897 367.094 C 403.885 369.415 390.731 370.952 377.515 371.69 C 377.919 364.506 378.132 357.222 378.132 350 C 378.132 342.778 377.919 335.493 377.515 328.31 L 377.515 328.307 C 390.731 329.047 403.885 330.583 416.897 332.904 C 417.575 338.579 417.917 344.287 417.92 350 L 417.924 349.998 Z M 352.139 320.606 L 352.139 285.779 C 357.552 285.846 362.854 286.159 368.05 286.717 L 368.048 286.718 C 370.507 299.021 372.132 311.46 372.915 323.958 C 366.031 323.613 359.067 323.423 352.139 323.388 L 352.139 320.606 Z M 352.139 379.392 L 352.139 376.609 C 359.067 376.574 366.033 376.385 372.915 376.039 L 372.915 376.04 C 372.131 388.539 370.506 400.977 368.048 413.281 C 362.861 413.83 357.559 414.143 352.137 414.217 L 352.139 379.392 Z M 352.139 372.507 L 352.139 327.49 C 359.434 327.522 366.443 327.713 373.17 328.063 C 373.565 335.044 373.783 342.364 373.783 349.998 C 373.783 357.632 373.565 364.952 373.17 371.934 C 366.451 372.275 359.442 372.466 352.139 372.508 L 352.139 372.507 Z M 371.747 283.017 C 368.635 268.873 364.409 257.568 359.141 251.445 C 377.669 255.121 393.844 269.775 404.514 290.765 L 404.511 290.766 C 393.941 287.002 382.945 284.403 371.745 283.019 L 371.747 283.017 Z M 367.127 282.501 C 362.233 282.019 357.224 281.752 352.139 281.692 L 352.139 251.03 C 357.538 253.464 363.026 264.787 367.127 282.502 L 367.127 282.501 Z M 347.792 325.43 L 347.792 377.261 C 338.001 376.565 329.257 371.221 324.561 363.07 C 319.866 354.921 319.866 345.076 324.561 336.926 C 329.254 328.776 338.001 323.434 347.792 322.735 L 347.792 325.43 Z M 367.127 417.495 C 363.026 435.209 357.539 446.532 352.139 448.967 L 352.139 418.304 C 357.224 418.244 362.231 417.978 367.127 417.496 L 367.127 417.495 Z M 371.747 416.979 L 371.747 416.98 C 382.945 415.597 393.941 412.996 404.511 409.232 C 393.843 430.225 377.669 444.875 359.139 448.552 C 364.41 442.429 368.634 431.124 371.747 416.98 L 371.747 416.979 Z M 372.631 412.727 L 372.631 412.728 C 374.944 400.515 376.489 388.183 377.261 375.799 C 390.36 375.072 403.4 373.609 416.316 371.425 C 414.69 382.586 411.57 393.509 407.031 403.928 C 396.005 408.226 384.446 411.185 372.631 412.728 L 372.631 412.727 Z M 420.828 370.587 C 435.774 367.65 447.723 363.662 454.208 358.69 C 450.31 376.192 434.829 391.472 412.635 401.552 C 416.617 391.56 419.363 381.171 420.828 370.587 Z M 421.374 366.218 C 422.565 355.436 422.565 344.564 421.374 333.781 C 442.636 338.18 455.194 344.263 455.194 350 C 455.194 355.735 442.636 361.82 421.374 366.218 Z M 332.309 446.113 L 332.309 433.84 C 332.309 432.877 331.602 432.043 330.608 431.834 C 320.611 429.733 311.077 425.999 302.438 420.796 C 301.58 420.28 300.455 420.397 299.738 421.078 L 290.549 429.763 C 289.146 431.027 286.941 431.027 285.538 429.763 L 265.578 410.895 C 264.195 409.588 264.195 407.467 265.578 406.16 L 274.766 397.475 L 274.766 397.476 C 275.485 396.795 275.609 395.733 275.063 394.922 C 269.559 386.757 265.608 377.745 263.384 368.294 C 263.164 367.355 262.281 366.686 261.265 366.686 L 248.278 366.686 C 246.322 366.685 244.74 365.186 244.736 363.338 L 244.736 336.655 C 244.74 334.807 246.322 333.309 248.278 333.307 L 261.265 333.307 C 262.281 333.307 263.164 332.639 263.384 331.699 C 265.608 322.249 269.559 313.238 275.06 305.072 C 275.606 304.262 275.484 303.198 274.763 302.518 L 265.578 293.834 L 265.578 293.837 C 264.196 292.527 264.196 290.408 265.578 289.099 L 285.538 270.231 C 286.941 268.967 289.147 268.967 290.549 270.231 L 299.738 278.916 C 300.458 279.595 301.578 279.711 302.438 279.196 C 311.076 273.997 320.611 270.259 330.608 268.16 C 331.602 267.951 332.309 267.117 332.309 266.155 L 332.309 253.881 C 332.311 252.032 333.897 250.534 335.852 250.533 L 347.794 250.533 L 347.794 282.395 C 347.685 306.398 348.135 266.135 347.795 286.485 L 347.795 318.657 L 347.795 318.656 C 336.453 319.345 326.27 325.465 320.801 334.881 C 315.33 344.297 315.33 355.702 320.801 365.119 C 326.27 374.535 336.453 380.654 347.795 381.343 L 347.795 413.464 C 347.813 408.089 347.926 427.563 347.796 417.615 L 347.796 449.463 L 335.854 449.463 L 335.852 449.462 C 333.897 449.46 332.312 447.963 332.31 446.114 L 332.309 446.113 Z M 376.739 446.177 C 390.509 438.284 402.2 424.509 410.286 407.012 C 428.806 399.364 443.385 388.307 451.734 375.284 C 446.96 392.303 437.507 407.824 424.336 420.276 C 411.165 432.727 394.745 441.664 376.739 446.177 Z" style="paint-order: fill; stroke: rgb(0, 0, 0); fill-rule: evenodd;"/>
  </g>
</svg>