<?xml version="1.0" encoding="utf-8"?>
<svg viewBox="1358.615 1040.731 411.25 411.25" xmlns="http://www.w3.org/2000/svg">
  <g transform="matrix(1, 0, 0, 1, 1214.239746, 896.355591)">
    <path d="M 440.938 315.702 L 405.19 315.702 L 405.19 258.354 C 405.157 251.731 402.786 245.389 398.594 240.713 C 394.402 236.037 388.727 233.402 382.808 233.384 L 262.006 233.384 C 256.085 233.402 250.411 236.037 246.219 240.713 C 242.028 245.39 239.657 251.731 239.625 258.354 L 239.625 352.331 C 239.625 358.977 241.98 365.354 246.177 370.059 C 250.372 374.765 256.064 377.419 262.006 377.438 L 264.152 377.438 L 264.152 411.737 C 264.149 413.048 264.483 414.333 265.112 415.441 C 265.743 416.546 266.644 417.428 267.708 417.979 C 268.521 418.379 269.397 418.588 270.284 418.596 C 271.745 418.596 273.16 418.012 274.27 416.95 L 315.476 377.438 L 325.471 377.438 L 325.471 410.708 C 325.503 416.45 327.566 421.947 331.209 425.996 C 334.849 430.043 339.776 432.317 344.911 432.317 L 396.544 432.317 L 425.364 464.626 C 426.521 465.91 428.086 466.626 429.716 466.615 C 430.521 466.637 431.319 466.449 432.047 466.066 C 433.167 465.551 434.126 464.676 434.802 463.555 C 435.478 462.431 435.842 461.109 435.849 459.755 L 435.849 432.317 L 440.938 432.317 C 446.082 432.317 451.018 430.034 454.66 425.971 C 458.305 421.908 460.359 416.394 460.375 410.638 L 460.375 337.376 C 460.359 331.621 458.305 326.108 454.66 322.044 C 451.018 317.981 446.082 315.7 440.938 315.7 L 440.938 315.702 Z M 313.209 363.721 C 311.748 363.721 310.333 364.305 309.223 365.369 L 276.417 396.785 L 276.417 370.582 C 276.417 368.761 275.772 367.018 274.62 365.73 C 273.472 364.445 271.911 363.721 270.286 363.721 L 262.008 363.721 C 259.313 363.721 256.73 362.52 254.831 360.383 C 252.931 358.245 251.873 355.348 251.889 352.335 L 251.889 258.358 C 251.906 255.367 252.979 252.507 254.873 250.397 C 256.77 248.29 259.334 247.106 262.008 247.108 L 382.809 247.108 C 385.481 247.106 388.046 248.29 389.941 250.397 C 391.836 252.507 392.909 255.367 392.925 258.358 L 392.925 352.335 C 392.942 355.348 391.883 358.245 389.985 360.383 C 388.085 362.52 385.503 363.721 382.809 363.721 L 313.209 363.721 Z M 448.111 410.712 C 448.079 412.816 447.31 414.823 445.967 416.298 C 444.625 417.774 442.819 418.6 440.937 418.6 L 429.715 418.6 C 428.09 418.6 426.53 419.324 425.38 420.609 C 424.229 421.897 423.584 423.64 423.584 425.46 L 423.584 443.296 L 403.41 420.658 C 402.262 419.349 400.694 418.608 399.056 418.599 L 344.913 418.599 C 343.022 418.599 341.206 417.763 339.861 416.274 C 338.517 414.783 337.755 412.759 337.739 410.643 L 337.739 377.442 L 382.81 377.442 C 388.751 377.424 394.443 374.769 398.64 370.063 C 402.835 365.358 405.192 358.981 405.192 352.335 L 405.192 329.422 L 440.94 329.422 C 442.832 329.422 444.648 330.259 445.992 331.75 C 447.336 333.239 448.099 335.263 448.115 337.379 L 448.111 410.712 Z" style=""/>
    <path d="M 472.5 144.375 L 227.5 144.375 C 205.461 144.402 184.332 153.168 168.75 168.75 C 153.168 184.332 144.402 205.461 144.375 227.5 L 144.375 472.5 C 144.402 494.539 153.168 515.668 168.75 531.25 C 184.332 546.832 205.461 555.598 227.5 555.625 L 472.5 555.625 C 494.539 555.598 515.668 546.832 531.25 531.25 C 546.832 515.668 555.598 494.539 555.625 472.5 L 555.625 227.5 C 555.597 205.461 546.832 184.332 531.25 168.75 C 515.668 153.168 494.539 144.402 472.5 144.375 Z M 529.375 472.495 C 529.355 487.573 523.359 502.03 512.695 512.69 C 502.035 523.354 487.578 529.35 472.5 529.37 L 227.5 529.37 C 212.422 529.35 197.965 523.354 187.305 512.69 C 176.641 502.03 170.645 487.573 170.625 472.495 L 170.625 227.495 C 170.644 212.417 176.64 197.96 187.305 187.3 C 197.965 176.636 212.422 170.64 227.5 170.62 L 472.5 170.62 C 487.578 170.639 502.035 176.635 512.695 187.3 C 523.359 197.96 529.355 212.417 529.375 227.495 L 529.375 472.495 Z"/>
  </g>
</svg>