<?xml version="1.0" encoding="utf-8"?>
<svg viewBox="2262.02 1038.258 411.25 413.723" xmlns="http://www.w3.org/2000/svg">
  <g transform="matrix(1, 0, 0, 1, 2117.644775, 896.355591)">
    <path d="M 236.685 291.925 L 464.491 291.925 L 464.491 233.3 L 236.685 233.3 M 455.256 281.664 L 246.271 281.664 L 246.271 244.466 L 455.256 244.466 L 455.256 281.664 Z" fill-opacity=".99471" style=""/>
    <path d="M 235.51 380.103 L 463.317 380.103 L 463.317 321.478 L 235.51 321.478" fill-opacity=".99471" style=""/>
    <path d="M 235.508 466.701 L 463.315 466.701 L 463.315 408.076 L 235.508 408.076" fill-opacity=".99471" style=""/>
    <path d="M 472.5 144.375 C 621.579 139.99 295.466 142.376 227.5 144.375 C 205.461 144.402 184.332 153.168 168.75 168.75 C 153.168 184.332 144.402 205.461 144.375 227.5 L 144.375 472.5 C 144.402 494.539 153.168 515.668 168.75 531.25 C 184.332 546.832 205.461 555.598 227.5 555.625 L 472.5 555.625 C 494.539 555.598 515.668 546.832 531.25 531.25 C 546.832 515.668 555.598 494.539 555.625 472.5 L 555.625 227.5 C 555.597 205.461 546.832 184.332 531.25 168.75 C 515.668 153.168 494.539 144.402 472.5 144.375 Z M 529.375 472.495 C 529.355 487.573 523.359 502.03 512.695 512.69 C 502.035 523.354 487.578 529.35 472.5 529.37 L 227.5 529.37 C 212.422 529.35 197.965 523.354 187.305 512.69 C 176.641 502.03 170.645 487.573 170.625 472.495 L 170.625 227.495 C 170.644 212.417 176.64 197.96 187.305 187.3 C 197.965 176.636 212.422 170.64 227.5 170.62 L 472.5 170.62 C 487.578 170.639 502.035 176.635 512.695 187.3 C 523.359 197.96 529.355 212.417 529.375 227.495 L 529.375 472.495 Z"/>
  </g>
</svg>