<?xml version="1.0" encoding="utf-8"?>
<svg viewBox="227.815 250 244.371 200" xmlns="http://www.w3.org/2000/svg">
  <g transform="matrix(0.709615, 0, 0, 0.835415, 117.377914, -0.624529)" style="">
    <path d="M 478.476 300 L 177.153 300 C 165.265 300 155.629 308.932 155.629 319.951 C 155.629 330.97 165.265 339.902 177.153 339.902 L 478.476 339.902 C 490.364 339.902 500 330.97 500 319.951 C 500 308.932 490.364 300 478.476 300 Z" style=""/>
    <path d="M 478.476 399.75 L 177.153 399.75 C 165.265 399.75 155.629 408.682 155.629 419.702 C 155.629 430.721 165.265 439.653 177.153 439.653 L 478.476 439.653 C 490.364 439.653 500 430.721 500 419.702 C 500 408.682 490.364 399.75 478.476 399.75 Z" style=""/>
    <path d="M 177.153 499.5 L 478.476 499.5 C 490.364 499.5 500 508.431 500 519.451 C 500 530.47 490.364 539.402 478.476 539.402 L 177.153 539.402 C 165.265 539.402 155.629 530.47 155.629 519.451 C 155.629 508.431 165.265 499.5 177.153 499.5 Z" style=""/>
  </g>
</svg>