<?xml version="1.0" encoding="utf-8"?>
<svg viewBox="144.375 144.375 411.25 411.25" xmlns="http://www.w3.org/2000/svg">
  <g>
    <path d="M 238.462 421.817 C 239.156 423.723 239.809 425.681 240.421 427.691 C 241.021 425.664 241.688 423.67 242.421 421.714 C 243.115 419.807 243.85 417.901 244.585 416.098 L 265.157 364.884 C 265.525 364.009 265.892 363.339 266.3 362.824 C 266.668 362.36 267.117 361.999 267.607 361.741 C 268.096 361.484 268.627 361.381 269.239 361.381 L 285.567 361.381 L 285.567 462.674 L 269.158 462.674 L 269.158 404.351 C 269.158 401.517 269.28 398.477 269.484 395.18 L 248.218 447.269 C 247.565 448.917 246.667 450.103 245.564 450.979 C 244.462 451.803 243.156 452.215 241.728 452.215 L 239.196 452.215 C 237.768 452.215 236.502 451.803 235.36 450.979 C 234.257 450.154 233.359 448.917 232.706 447.269 L 211.277 395.128 C 211.44 396.777 211.522 398.374 211.603 399.972 C 211.685 401.569 211.726 403.063 211.726 404.402 L 211.726 462.674 L 195.316 462.674 L 195.316 361.381 L 211.643 361.381 C 212.256 361.381 212.787 361.484 213.277 361.741 C 213.766 361.999 214.175 362.308 214.583 362.824 C 214.95 363.287 215.358 364.009 215.726 364.884 L 236.38 416.356 C 237.074 418.107 237.809 419.911 238.462 421.817 Z M 373.614 411.976 C 373.614 416.356 373.246 420.529 372.552 424.548 C 371.818 428.566 370.797 432.327 369.45 435.831 C 368.103 439.334 366.47 442.632 364.47 445.62 C 362.511 448.661 360.266 451.288 357.776 453.606 L 378.103 481.635 L 362.796 481.635 C 360.592 481.635 358.592 481.274 356.796 480.604 C 355 479.935 353.408 478.595 352.02 476.534 L 342.06 462.416 C 340.427 462.829 338.795 463.138 337.121 463.395 C 335.448 463.602 333.733 463.756 331.978 463.756 C 325.732 463.756 320.018 462.416 314.875 459.789 C 309.732 457.161 305.323 453.503 301.69 448.815 C 298.017 444.178 295.2 438.665 293.2 432.379 C 291.2 426.093 290.179 419.241 290.179 411.925 C 290.179 404.608 291.2 397.808 293.2 391.47 C 295.2 385.184 298.017 379.671 301.69 375.034 C 305.364 370.397 309.732 366.74 314.875 364.112 C 320.018 361.484 325.692 360.144 331.978 360.144 C 338.223 360.144 343.897 361.484 349.04 364.163 C 354.183 366.842 358.551 370.5 362.184 375.138 C 365.817 379.775 368.633 385.236 370.633 391.574 C 372.633 397.859 373.614 404.66 373.614 411.976 Z M 354.551 411.976 C 354.551 406.979 354.02 402.444 353 398.426 C 351.979 394.407 350.51 391.007 348.55 388.224 C 346.632 385.442 344.265 383.33 341.489 381.835 C 338.713 380.341 335.529 379.62 331.937 379.62 C 328.345 379.62 325.121 380.341 322.304 381.835 C 319.487 383.33 317.12 385.442 315.201 388.224 C 313.283 391.007 311.814 394.407 310.752 398.426 C 309.732 402.444 309.201 406.927 309.201 411.976 C 309.201 417.025 309.732 421.559 310.752 425.578 C 311.773 429.597 313.242 432.998 315.201 435.78 C 317.12 438.561 319.487 440.674 322.304 442.169 C 325.121 443.611 328.304 444.384 331.937 444.384 C 335.488 444.384 338.672 443.662 341.489 442.169 C 344.265 440.725 346.632 438.561 348.55 435.78 C 350.469 432.998 351.938 429.597 353 425.578 C 354.061 421.559 354.551 417.025 354.551 411.976 Z M 433.413 361.329 L 433.413 379.981 L 411.657 379.981 L 411.657 462.674 L 393.043 462.674 L 393.043 379.981 L 371.286 379.981 L 371.286 361.329 L 433.413 361.329 Z M 504.683 361.329 L 504.683 379.981 L 482.11 379.981 L 482.11 462.674 L 463.497 462.674 L 463.497 379.981 L 441.74 379.981 L 441.74 361.329 L 504.683 361.329 Z" style="fill: rgb(2, 2, 2);"/>
    <path d="M 288.848 271.285 L 288.485 271.285 L 288.485 317.679 C 288.485 321.027 291.274 323.777 294.669 323.777 L 343.117 323.777 C 342.693 294.781 318.56 271.285 288.848 271.285 Z M 288.848 233.022 L 288.485 233.022 L 288.485 252.751 C 328.443 252.931 360.944 284.617 361.368 323.777 L 382.106 323.777 C 381.742 273.676 340.085 233.022 288.848 233.022 Z M 411.514 317.739 L 411.514 275.829 C 397.446 241.87 369.13 215.026 333.9 202.531 L 294.669 202.531 C 291.274 202.531 288.485 205.281 288.485 208.629 L 288.485 214.548 C 349.969 214.727 399.993 263.573 400.357 323.837 L 405.329 323.837 C 408.785 323.777 411.514 321.087 411.514 317.739 Z M 395.324 219.45 C 401.024 225.07 406.845 232.185 411.514 238.462 L 411.514 208.569 C 411.524 205.23 408.776 202.521 405.39 202.531 L 374.162 202.531 C 381.439 207.493 388.957 213.173 395.324 219.45 Z" style=""/>
    <path d="M 472.5 144.375 L 227.5 144.375 C 205.461 144.402 184.332 153.168 168.75 168.75 C 153.168 184.332 144.402 205.461 144.375 227.5 L 144.375 472.5 C 144.402 494.539 153.168 515.668 168.75 531.25 C 184.332 546.832 205.461 555.598 227.5 555.625 L 472.5 555.625 C 494.539 555.598 515.668 546.832 531.25 531.25 C 546.832 515.668 555.598 494.539 555.625 472.5 L 555.625 227.5 C 555.597 205.461 546.832 184.332 531.25 168.75 C 515.668 153.168 494.539 144.402 472.5 144.375 Z M 529.375 472.495 C 529.355 487.573 523.359 502.03 512.695 512.69 C 502.035 523.354 487.578 529.35 472.5 529.37 L 227.5 529.37 C 212.422 529.35 197.965 523.354 187.305 512.69 C 176.641 502.03 170.645 487.573 170.625 472.495 L 170.625 227.495 C 170.644 212.417 176.64 197.96 187.305 187.3 C 197.965 176.636 212.422 170.64 227.5 170.62 L 472.5 170.62 C 487.578 170.639 502.035 176.635 512.695 187.3 C 523.359 197.96 529.355 212.417 529.375 227.495 L 529.375 472.495 Z"/>
  </g>
</svg>