<?xml version="1.0" encoding="utf-8"?>
<svg viewBox="2262.02 541.718 411.25 411.25" xmlns="http://www.w3.org/2000/svg">
  <g transform="matrix(1, 0, 0, 1, 2117.644775, 397.342682)">
    <path d="M 472.5 144.375 L 227.5 144.375 C 205.461 144.402 184.332 153.168 168.75 168.75 C 153.168 184.332 144.402 205.461 144.375 227.5 L 144.375 472.5 C 144.402 494.539 153.168 515.668 168.75 531.25 C 184.332 546.832 205.461 555.598 227.5 555.625 L 472.5 555.625 C 494.539 555.598 515.668 546.832 531.25 531.25 C 546.832 515.668 555.598 494.539 555.625 472.5 L 555.625 227.5 C 555.597 205.461 546.832 184.332 531.25 168.75 C 515.668 153.168 494.539 144.402 472.5 144.375 Z M 529.375 472.495 C 529.355 487.573 523.359 502.03 512.695 512.69 C 502.035 523.354 487.578 529.35 472.5 529.37 L 227.5 529.37 C 212.422 529.35 197.965 523.354 187.305 512.69 C 176.641 502.03 170.645 487.573 170.625 472.495 L 170.625 227.495 C 170.644 212.417 176.64 197.96 187.305 187.3 C 197.965 176.636 212.422 170.64 227.5 170.62 L 472.5 170.62 C 487.578 170.639 502.035 176.635 512.695 187.3 C 523.359 197.96 529.355 212.417 529.375 227.495 L 529.375 472.495 Z"/>
    <path d="M 256.412 499.999 L 443.592 499.999 C 452.751 499.999 460.227 492.106 460.227 482.4 L 460.227 267.341 C 460.227 267.214 460.168 267.114 460.155 267.002 C 460.119 266.462 460.047 265.92 459.859 265.417 C 459.61 264.788 459.252 264.236 458.801 263.77 L 400.165 201.484 C 399.726 201.02 399.203 200.642 398.632 200.39 C 398.06 200.139 397.432 200 396.802 200 L 256.407 200.002 C 247.248 200.002 239.773 207.895 239.773 217.602 L 239.773 482.416 C 239.773 492.106 247.248 500 256.407 500 L 256.412 499.999 Z M 450.721 421.46 L 249.282 421.46 L 249.282 322.925 L 450.711 322.962 L 450.711 421.46 L 450.721 421.46 Z M 443.592 489.941 L 256.412 489.941 C 252.479 489.941 249.282 486.56 249.282 482.399 L 249.282 431.503 L 450.711 431.503 L 450.711 482.399 C 450.722 486.56 447.526 489.941 443.594 489.941 L 443.592 489.941 Z M 401.567 217.196 L 444.032 262.297 L 401.567 262.297 L 401.567 217.196 Z M 249.282 217.598 C 249.282 213.438 252.479 210.056 256.411 210.056 L 392.054 210.056 L 392.054 267.338 C 392.054 270.115 394.192 272.365 396.806 272.365 L 450.712 272.365 L 450.712 312.903 L 253.143 312.905 L 249.282 312.88 L 249.282 217.598 Z" style=""/>
    <path d="M 304.512 393.102 C 307.446 393.102 309.786 392.814 311.545 392.222 C 313.886 391.431 315.752 390.324 317.128 388.904 C 318.958 387.031 320.361 384.579 321.336 381.552 C 322.143 379.074 322.547 376.123 322.547 372.703 C 322.547 368.805 322.119 365.525 321.264 362.874 C 320.408 360.222 319.149 357.97 317.508 356.135 C 315.869 354.3 313.884 353.019 311.578 352.301 C 309.846 351.771 307.351 351.508 304.083 351.508 L 289.565 351.508 L 289.565 393.115 L 304.511 393.115 L 304.512 393.102 Z M 297.502 358.534 L 301.066 358.534 C 304.299 358.534 306.473 358.674 307.589 358.936 C 309.075 359.275 310.298 359.929 311.261 360.897 C 312.223 361.865 312.983 363.21 313.518 364.932 C 314.053 366.653 314.325 369.117 314.325 372.335 C 314.325 375.551 314.053 378.092 313.518 379.953 C 312.983 381.813 312.283 383.157 311.44 383.961 C 310.584 384.777 309.526 385.357 308.231 385.695 C 307.244 385.958 305.653 386.097 303.431 386.097 L 297.502 386.099 L 297.502 358.534 Z" style=""/>
    <path d="M 392.65 393.494 C 395.584 393.494 397.925 393.205 399.683 392.615 C 402.024 391.823 403.89 390.716 405.266 389.296 C 407.097 387.423 408.499 384.972 409.473 381.943 C 410.282 379.467 410.685 376.514 410.685 373.095 C 410.685 369.197 410.257 365.917 409.401 363.265 C 408.547 360.614 407.287 358.363 405.646 356.527 C 404.007 354.692 402.022 353.41 399.717 352.693 C 397.985 352.163 395.49 351.899 392.222 351.899 L 377.703 351.899 L 377.703 393.506 L 392.65 393.506 L 392.65 393.494 Z M 385.64 358.926 L 389.205 358.926 C 392.437 358.926 394.611 359.065 395.727 359.328 C 397.212 359.666 398.436 360.322 399.399 361.289 C 400.361 362.258 401.121 363.602 401.656 365.323 C 402.192 367.045 402.464 369.508 402.464 372.726 C 402.464 375.944 402.192 378.484 401.656 380.344 C 401.121 382.204 400.422 383.549 399.578 384.353 C 398.723 385.17 397.665 385.748 396.369 386.087 C 395.383 386.35 393.791 386.489 391.57 386.489 L 385.64 386.491 L 385.64 358.926 Z" style=""/>
    <path d="M 354.873 384.723 C 353.351 386.144 351.546 386.846 349.443 386.846 C 346.591 386.846 344.263 385.726 342.481 383.502 C 340.699 381.278 339.808 377.532 339.808 372.291 C 339.808 367.349 340.711 363.769 342.529 361.557 C 344.347 359.344 346.7 358.238 349.61 358.238 C 351.712 358.238 353.507 358.866 354.98 360.111 C 356.455 361.354 357.417 363.052 357.878 365.213 L 365.719 363.227 C 364.828 359.909 363.486 357.356 361.703 355.583 C 358.71 352.578 354.799 351.085 350.011 351.085 C 344.51 351.085 340.078 352.995 336.705 356.817 C 333.333 360.638 331.635 366.007 331.635 372.92 C 331.635 379.456 333.309 384.597 336.672 388.368 C 340.022 392.139 344.313 394.012 349.516 394.012 C 353.723 394.012 357.204 392.917 359.949 390.718 C 362.694 388.52 364.641 385.15 365.831 380.624 L 358.143 378.046 C 357.477 381.091 356.383 383.315 354.872 384.724 L 354.873 384.723 Z" style=""/>
  </g>
</svg>