<?xml version="1.0" encoding="utf-8"?>
<svg viewBox="144.375 590.375 411.25 411.25" xmlns="http://www.w3.org/2000/svg">
  <path d="M 472.5 590.375 L 227.5 590.375 C 205.461 590.402 184.332 599.168 168.75 614.75 C 153.168 630.332 144.402 651.461 144.375 673.5 L 144.375 918.5 C 144.402 940.539 153.168 961.668 168.75 977.25 C 184.332 992.832 205.461 1001.598 227.5 1001.625 L 472.5 1001.625 C 494.539 1001.598 515.668 992.832 531.25 977.25 C 546.832 961.668 555.598 940.539 555.625 918.5 L 555.625 673.5 C 555.597 651.461 546.832 630.332 531.25 614.75 C 515.668 599.168 494.539 590.402 472.5 590.375 Z M 529.375 918.495 C 529.355 933.573 523.359 948.03 512.695 958.69 C 502.035 969.354 487.578 975.35 472.5 975.37 L 227.5 975.37 C 212.422 975.35 197.965 969.354 187.305 958.69 C 176.641 948.03 170.645 933.573 170.625 918.495 L 170.625 673.495 C 170.644 658.417 176.64 643.96 187.305 633.3 C 197.965 622.636 212.422 616.64 227.5 616.62 L 472.5 616.62 C 487.578 616.639 502.035 622.635 512.695 633.3 C 523.359 643.96 529.355 658.417 529.375 673.495 L 529.375 918.495 Z"/>
  <path d="M 370.337 793.014 L 432.492 847.909 L 351.55 919.402 L 322.927 919.402 L 322.927 834.89 L 260.471 890.05 L 240.22 872.178 L 322.927 799.143 L 322.927 786.882 L 240.22 713.823 L 260.471 695.951 L 322.927 751.111 L 322.927 666.599 L 351.55 666.599 L 432.492 738.104 L 370.337 792.999 L 370.337 793.014 Z M 351.548 812.153 L 351.548 883.658 L 392.02 847.911 L 351.548 812.153 Z M 351.548 773.852 L 392.02 738.108 L 351.548 702.362 L 351.548 773.868 L 351.548 773.852 Z M 444.17 811.596 C 438.476 811.596 433.017 809.6 428.991 806.042 C 424.967 802.486 422.704 797.665 422.704 792.636 C 422.704 787.607 424.967 782.785 428.991 779.23 C 433.017 775.675 438.477 773.677 444.17 773.677 C 449.865 773.677 455.325 775.674 459.35 779.23 C 463.375 782.785 465.637 787.607 465.637 792.636 C 465.637 797.665 463.375 802.487 459.35 806.042 C 455.325 809.6 449.865 811.596 444.17 811.596 Z M 258.121 811.596 C 252.426 811.596 246.967 809.6 242.942 806.042 C 238.917 802.486 236.654 797.665 236.654 792.636 C 236.654 787.607 238.917 782.785 242.942 779.23 C 246.967 775.675 252.427 773.677 258.121 773.677 C 263.815 773.677 269.275 775.674 273.301 779.23 C 277.325 782.785 279.588 787.607 279.588 792.636 C 279.588 797.665 277.325 802.487 273.301 806.042 C 269.275 809.6 263.815 811.596 258.121 811.596 Z" style=""/>
</svg>