<?xml version="1.0" encoding="utf-8"?>
<svg viewBox="900 1518.977 411.25 411.25" xmlns="http://www.w3.org/2000/svg">
  <g transform="matrix(1, 0, 0, 1, 1867.56543, 2738.523682)">
    <g>
      <g>
        <g>
          <g>
            <g>
              <g transform="matrix(1, 0, 0, 1, -1111.94043, -1363.921387)">
                <path d="M 472.5 144.375 L 227.5 144.375 C 205.461 144.402 184.332 153.168 168.75 168.75 C 153.168 184.332 144.402 205.461 144.375 227.5 L 144.375 472.5 C 144.402 494.539 153.168 515.668 168.75 531.25 C 184.332 546.832 205.461 555.598 227.5 555.625 L 472.5 555.625 C 494.539 555.598 515.668 546.832 531.25 531.25 C 546.832 515.668 555.598 494.539 555.625 472.5 L 555.625 227.5 C 555.597 205.461 546.832 184.332 531.25 168.75 C 515.668 153.168 494.539 144.402 472.5 144.375 Z M 529.375 472.495 C 529.355 487.573 523.359 502.03 512.695 512.69 C 502.035 523.354 487.578 529.35 472.5 529.37 L 227.5 529.37 C 212.422 529.35 197.965 523.354 187.305 512.69 C 176.641 502.03 170.645 487.573 170.625 472.495 L 170.625 227.495 C 170.644 212.417 176.64 197.96 187.305 187.3 C 197.965 176.636 212.422 170.64 227.5 170.62 L 472.5 170.62 C 487.578 170.639 502.035 176.635 512.695 187.3 C 523.359 197.96 529.355 212.417 529.375 227.495 L 529.375 472.495 Z"/>
                <g>
                  <g style="" transform="matrix(0.604965, 0, 0, 0.612261, -745.139771, 520.496582)"/>
                </g>
              </g>
              <g transform="matrix(0.592494, 0, 0, 0.502251, -966.5849, -1163.978882)" style="">
                <g>
                  <g>
                    <g>
                      <path d="M 454.59 545.31 L 590.08 545.31 L 590.08 231.17 L 454.59 231.17 L 454.59 545.31 Z" fill-opacity=".99471" style=""/>
                      <path d="M 455.3 187.72 L 590.79 187.72 L 590.79 52.23 L 455.3 52.23 M 579.42 175.44 L 466.16 175.44 L 466.16 64.62 L 579.42 64.62 L 579.42 175.44 Z" fill-opacity=".99471"/>
                      <path d="M 100.867 544.58 L 413.547 545.31 L 412.887 52.63 L 100 53.07 L 100.867 544.58 Z" fill-opacity=".99471"/>
                    </g>
                  </g>
                </g>
                <g>
                  <text style="fill: rgb(51, 51, 51); font-family: Arial, sans-serif; font-size: 31px; text-transform: capitalize; white-space: pre; text-anchor: middle;" x="491.852" y="102.413" transform="matrix(1.321721, 0, 0, 1, -126.923645, 0)">8.888</text>
                  <path d="M 556.467 116.624 C 552.239 116.624 548.764 119.21 548.764 122.356 C 548.764 123.649 549.361 124.822 550.346 125.785 L 537.278 139.68 C 536.724 139.584 536.149 139.552 535.558 139.552 C 533.41 139.552 531.458 140.198 530.056 141.267 L 520.84 137.275 C 521.104 136.699 521.253 136.097 521.253 135.458 C 521.253 132.311 517.778 129.726 513.55 129.726 C 509.322 129.726 505.847 132.311 505.847 135.458 C 505.847 136.751 506.444 137.924 507.429 138.887 L 494.36 152.782 C 493.807 152.686 493.231 152.654 492.641 152.654 C 488.413 152.654 484.938 155.24 484.938 158.386 C 484.938 161.532 488.413 164.118 492.641 164.118 C 496.869 164.118 500.344 161.532 500.344 158.386 C 500.344 156.85 499.516 155.427 498.178 154.394 L 510.937 140.831 C 511.755 141.054 512.633 141.189 513.55 141.189 C 515.338 141.189 516.983 140.707 518.296 139.935 L 528.028 144.157 C 527.929 144.522 527.856 144.899 527.856 145.283 C 527.856 148.43 531.331 151.015 535.559 151.015 C 539.787 151.015 543.262 148.43 543.262 145.283 C 543.262 143.748 542.434 142.325 541.096 141.291 L 553.853 127.73 C 554.672 127.952 555.55 128.088 556.467 128.088 C 560.695 128.088 564.17 125.502 564.17 122.356 C 564.17 119.209 560.695 116.624 556.467 116.624 Z M 556.467 119.899 C 558.316 119.899 559.769 120.98 559.769 122.356 C 559.769 123.732 558.316 124.813 556.467 124.813 C 554.618 124.813 553.165 123.732 553.165 122.356 C 553.165 120.98 554.618 119.899 556.467 119.899 Z M 513.548 133.002 C 515.398 133.002 516.85 134.082 516.85 135.458 C 516.85 136.834 515.398 137.915 513.548 137.915 C 511.699 137.915 510.247 136.834 510.247 135.458 C 510.247 134.082 511.699 133.002 513.548 133.002 Z M 535.558 142.828 C 537.407 142.828 538.86 143.908 538.86 145.285 C 538.86 146.661 537.407 147.742 535.558 147.742 C 533.709 147.742 532.256 146.661 532.256 145.285 C 532.256 143.909 533.709 142.828 535.558 142.828 Z M 492.639 155.931 C 494.488 155.931 495.941 157.011 495.941 158.387 C 495.941 159.763 494.489 160.844 492.639 160.844 C 490.79 160.844 489.338 159.763 489.338 158.387 C 489.338 157.011 490.79 155.931 492.639 155.931 Z" style=""/>
                </g>
              </g>
            </g>
          </g>
        </g>
      </g>
    </g>
    <g/>
  </g>
</svg>