<?xml version="1.0" encoding="utf-8"?>
<svg viewBox="888.75 88.75 411.25 411.25" xmlns="http://www.w3.org/2000/svg">
  <g transform="matrix(1, 0, 0, 1, 744.375, -55.625)">
    <path d="M 472.5 144.375 L 227.5 144.375 C 205.461 144.402 184.332 153.168 168.75 168.75 C 153.168 184.332 144.402 205.461 144.375 227.5 L 144.375 472.5 C 144.402 494.539 153.168 515.668 168.75 531.25 C 184.332 546.832 205.461 555.598 227.5 555.625 L 472.5 555.625 C 494.539 555.598 515.668 546.832 531.25 531.25 C 546.832 515.668 555.598 494.539 555.625 472.5 L 555.625 227.5 C 555.597 205.461 546.832 184.332 531.25 168.75 C 515.668 153.168 494.539 144.402 472.5 144.375 Z M 529.375 472.495 C 529.355 487.573 523.359 502.03 512.695 512.69 C 502.035 523.354 487.578 529.35 472.5 529.37 L 227.5 529.37 C 212.422 529.35 197.965 523.354 187.305 512.69 C 176.641 502.03 170.645 487.573 170.625 472.495 L 170.625 227.495 C 170.644 212.417 176.64 197.96 187.305 187.3 C 197.965 176.636 212.422 170.64 227.5 170.62 L 472.5 170.62 C 487.578 170.639 502.035 176.635 512.695 187.3 C 523.359 197.96 529.355 212.417 529.375 227.495 L 529.375 472.495 Z"/>
    <path d="M 350.003 225.398 C 281.124 225.957 225.123 281.398 225.123 350.278 C 225.123 419.157 281.123 475.158 350.003 474.598 C 387.523 474.598 421.124 457.797 444.081 431.477 L 444.639 431.477 L 444.639 430.918 C 463.119 409.078 474.877 380.52 474.877 349.719 C 474.323 281.399 418.322 225.399 349.997 225.399 L 350.003 225.398 Z M 390.323 416.358 L 357.284 416.358 L 357.284 357.557 L 404.886 357.557 C 403.765 378.28 399.284 397.877 390.324 416.358 L 390.323 416.358 Z M 298.483 358.12 L 342.163 358.12 L 342.163 416.921 L 313.042 416.921 C 304.643 397.878 299.604 378.28 298.483 358.12 Z M 342.163 288.679 L 342.163 342.441 L 298.483 342.441 C 299.604 323.961 303.522 305.48 310.803 288.679 L 342.163 288.679 Z M 357.284 342.441 L 357.284 288.679 L 392.565 288.679 C 399.846 306.038 403.764 323.96 404.885 342.441 L 357.284 342.441 Z M 357.284 241.081 C 358.963 241.081 360.085 241.081 361.764 241.64 C 371.284 251.718 379.123 262.359 385.284 273.562 L 357.284 273.562 L 357.284 241.081 Z M 342.163 273.558 L 318.085 273.558 C 324.245 261.796 332.644 251.16 342.163 241.078 L 342.163 273.558 Z M 259.284 288.679 L 294.003 288.679 C 287.284 306.038 283.925 324.519 282.804 342.441 L 240.245 342.441 C 241.924 322.839 248.643 304.359 259.284 288.679 Z M 240.804 358.12 L 283.363 358.12 C 284.484 378.28 288.402 397.882 296.242 416.921 L 262.64 416.921 C 250.324 400.12 242.484 379.96 240.804 358.12 Z M 342.164 458.92 C 334.324 450.522 327.043 441.561 321.445 432.041 L 342.164 432.041 L 342.164 458.92 Z M 357.285 459.479 L 357.285 432.038 L 381.926 432.038 C 375.766 441.557 369.047 451.077 360.645 459.479 L 357.285 459.479 Z M 436.805 416.358 L 407.125 416.358 C 414.965 397.319 419.445 377.717 420.004 357.557 L 458.645 357.557 C 457.524 379.959 449.125 400.119 436.805 416.358 Z M 458.645 342.44 L 420.004 342.44 C 419.445 323.96 415.523 306.042 408.805 288.678 L 439.606 288.678 C 450.805 304.358 457.524 322.838 458.645 342.44 Z"/>
  </g>
</svg>