<?xml version="1.0" encoding="utf-8"?>
<svg viewBox="900 1040.731 411.25 411.25" xmlns="http://www.w3.org/2000/svg">
  <g transform="matrix(1, 0, 0, 1, 755.625, -435.35144)">
    <g>
      <path d="M 472.5 1476.082 L 227.5 1476.082 C 205.461 1476.109 184.332 1484.875 168.75 1500.457 C 153.168 1516.039 144.402 1537.168 144.375 1559.207 L 144.375 1804.207 C 144.402 1826.246 153.168 1847.375 168.75 1862.957 C 184.332 1878.539 205.461 1887.305 227.5 1887.332 L 472.5 1887.332 C 494.539 1887.305 515.668 1878.539 531.25 1862.957 C 546.832 1847.375 555.598 1826.246 555.625 1804.207 L 555.625 1559.207 C 555.597 1537.168 546.832 1516.039 531.25 1500.457 C 515.668 1484.875 494.539 1476.109 472.5 1476.082 Z M 529.375 1804.202 C 529.355 1819.28 523.359 1833.737 512.695 1844.397 C 502.035 1855.061 487.578 1861.057 472.5 1861.077 L 227.5 1861.077 C 212.422 1861.057 197.965 1855.061 187.305 1844.397 C 176.641 1833.737 170.645 1819.28 170.625 1804.202 L 170.625 1559.202 C 170.644 1544.124 176.64 1529.667 187.305 1519.007 C 197.965 1508.343 212.422 1502.347 227.5 1502.327 L 472.5 1502.327 C 487.578 1502.346 502.035 1508.342 512.695 1519.007 C 523.359 1529.667 529.355 1544.124 529.375 1559.202 L 529.375 1804.202 Z"/>
    </g>
    <path d="M 473.249 1574.486 C 456.92 1574.486 443.499 1586.161 443.499 1600.367 C 443.499 1606.205 445.806 1611.501 449.61 1615.849 L 399.14 1678.588 C 397.003 1678.157 394.779 1678.011 392.499 1678.011 C 384.201 1678.011 376.665 1680.925 371.249 1685.754 L 335.656 1667.728 C 336.676 1665.128 337.251 1662.41 337.251 1659.524 C 337.251 1645.318 323.83 1633.642 307.501 1633.642 C 291.173 1633.642 277.752 1645.318 277.752 1659.524 C 277.752 1665.362 280.058 1670.658 283.861 1675.006 L 233.391 1737.745 C 231.254 1737.314 229.031 1737.168 226.751 1737.168 C 210.421 1737.168 197.001 1748.844 197.001 1763.049 C 197.001 1777.254 210.422 1788.93 226.751 1788.93 C 243.079 1788.93 256.5 1777.254 256.5 1763.049 C 256.5 1756.116 253.302 1749.689 248.135 1745.023 L 297.41 1683.785 C 300.57 1684.79 303.962 1685.402 307.504 1685.402 C 314.409 1685.402 320.762 1683.225 325.831 1679.741 L 363.416 1698.805 C 363.034 1700.451 362.752 1702.153 362.752 1703.889 C 362.752 1718.095 376.174 1729.77 392.502 1729.77 C 408.831 1729.77 422.252 1718.094 422.252 1703.889 C 422.252 1696.956 419.054 1690.529 413.886 1685.863 L 463.155 1624.63 C 466.315 1625.635 469.707 1626.247 473.25 1626.247 C 489.579 1626.247 503 1614.571 503 1600.366 C 503 1586.16 489.578 1574.484 473.25 1574.484 L 473.249 1574.486 Z M 473.249 1589.274 C 480.391 1589.274 486 1594.153 486 1600.367 C 486 1606.58 480.391 1611.46 473.249 1611.46 C 466.107 1611.46 460.498 1606.58 460.498 1600.367 C 460.498 1594.153 466.107 1589.274 473.249 1589.274 Z M 307.496 1648.434 C 314.638 1648.434 320.247 1653.313 320.247 1659.527 C 320.247 1665.74 314.638 1670.62 307.496 1670.62 C 300.354 1670.62 294.745 1665.74 294.745 1659.527 C 294.745 1653.313 300.354 1648.434 307.496 1648.434 Z M 392.498 1692.802 C 399.639 1692.802 405.249 1697.679 405.249 1703.895 C 405.249 1710.108 399.64 1714.988 392.498 1714.988 C 385.356 1714.988 379.747 1710.108 379.747 1703.895 C 379.747 1697.682 385.356 1692.802 392.498 1692.802 Z M 226.745 1751.963 C 233.886 1751.963 239.496 1756.839 239.496 1763.055 C 239.496 1769.268 233.887 1774.148 226.745 1774.148 C 219.603 1774.148 213.994 1769.268 213.994 1763.055 C 213.994 1756.842 219.603 1751.963 226.745 1751.963 Z" style=""/>
  </g>
</svg>