<?xml version="1.0" encoding="utf-8"?>
<svg viewBox="2262.02 88.75 411.25 411.25" xmlns="http://www.w3.org/2000/svg">
  <g transform="matrix(1, 0, 0, 1, 2117.644775, -55.625)">
    <path d="M 472.5 144.375 L 227.5 144.375 C 205.461 144.402 184.332 153.168 168.75 168.75 C 153.168 184.332 144.402 205.461 144.375 227.5 L 144.375 472.5 C 144.402 494.539 153.168 515.668 168.75 531.25 C 184.332 546.832 205.461 555.598 227.5 555.625 L 472.5 555.625 C 494.539 555.598 515.668 546.832 531.25 531.25 C 546.832 515.668 555.598 494.539 555.625 472.5 L 555.625 227.5 C 555.597 205.461 546.832 184.332 531.25 168.75 C 515.668 153.168 494.539 144.402 472.5 144.375 Z M 529.375 472.495 C 529.355 487.573 523.359 502.03 512.695 512.69 C 502.035 523.354 487.578 529.35 472.5 529.37 L 227.5 529.37 C 212.422 529.35 197.965 523.354 187.305 512.69 C 176.641 502.03 170.645 487.573 170.625 472.495 L 170.625 227.495 C 170.644 212.417 176.64 197.96 187.305 187.3 C 197.965 176.636 212.422 170.64 227.5 170.62 L 472.5 170.62 C 487.578 170.639 502.035 176.635 512.695 187.3 C 523.359 197.96 529.355 212.417 529.375 227.495 L 529.375 472.495 Z"/>
    <g transform="matrix(1, 0, 0, 1, -1030.826416, -457.709503)">
      <path d="M 1291.25 845.863 C 1297.012 845.863 1301.609 845.328 1305.062 844.23 C 1309.66 842.762 1313.324 840.707 1316.027 838.07 C 1319.621 834.594 1322.375 830.043 1324.289 824.422 C 1325.874 819.824 1326.667 814.344 1326.667 807.996 C 1326.667 800.762 1325.828 794.672 1324.148 789.75 C 1322.468 784.828 1319.996 780.649 1316.773 777.242 C 1313.554 773.836 1309.656 771.457 1305.128 770.125 C 1301.726 769.141 1296.827 768.652 1290.409 768.652 L 1261.897 768.652 L 1261.897 845.886 L 1291.249 845.886 L 1291.25 845.863 Z M 1277.484 781.695 L 1284.484 781.695 C 1290.832 781.695 1295.101 781.953 1297.293 782.441 C 1300.211 783.07 1302.613 784.285 1304.504 786.082 C 1306.394 787.879 1307.887 790.375 1308.937 793.57 C 1309.988 796.765 1310.523 801.34 1310.523 807.312 C 1310.523 813.285 1309.988 818 1308.937 821.453 C 1307.887 824.906 1306.512 827.402 1304.855 828.895 C 1303.176 830.41 1301.098 831.484 1298.555 832.113 C 1296.617 832.602 1293.492 832.859 1289.129 832.859 L 1277.484 832.863 L 1277.484 781.695 Z"/>
      <path d="M 1464.338 846.59 C 1470.1 846.59 1474.697 846.055 1478.15 844.958 C 1482.748 843.489 1486.412 841.434 1489.115 838.797 C 1492.709 835.321 1495.463 830.77 1497.377 825.149 C 1498.963 820.552 1499.756 815.071 1499.756 808.723 C 1499.756 801.489 1498.916 795.399 1497.236 790.477 C 1495.556 785.555 1493.084 781.376 1489.861 777.969 C 1486.642 774.563 1482.744 772.184 1478.216 770.852 C 1474.814 769.868 1469.915 769.379 1463.497 769.379 L 1434.985 769.379 L 1434.985 846.613 L 1464.337 846.613 L 1464.338 846.59 Z M 1450.572 782.422 L 1457.572 782.422 C 1463.92 782.422 1468.189 782.68 1470.381 783.168 C 1473.299 783.797 1475.701 785.012 1477.592 786.809 C 1479.482 788.606 1480.975 791.102 1482.025 794.297 C 1483.076 797.493 1483.611 802.067 1483.611 808.039 C 1483.611 814.012 1483.076 818.727 1482.025 822.18 C 1480.975 825.633 1479.6 828.13 1477.943 829.622 C 1476.264 831.137 1474.186 832.212 1471.643 832.841 C 1469.705 833.329 1466.58 833.587 1462.217 833.587 L 1450.572 833.591 L 1450.572 782.422 Z"/>
      <path d="M 1390.151 830.308 C 1387.163 832.945 1383.616 834.25 1379.487 834.25 C 1373.886 834.25 1369.315 832.171 1365.815 828.043 C 1362.315 823.914 1360.565 816.961 1360.565 807.231 C 1360.565 798.059 1362.339 791.411 1365.909 787.305 C 1369.479 783.199 1374.1 781.144 1379.815 781.144 C 1383.944 781.144 1387.467 782.312 1390.362 784.621 C 1393.257 786.93 1395.147 790.082 1396.053 794.094 L 1411.451 790.406 C 1409.701 784.246 1407.065 779.508 1403.565 776.218 C 1397.686 770.64 1390.006 767.867 1380.604 767.867 C 1369.799 767.867 1361.096 771.413 1354.471 778.508 C 1347.85 785.601 1344.514 795.567 1344.514 808.399 C 1344.514 820.532 1347.803 830.075 1354.408 837.075 C 1360.986 844.075 1369.412 847.552 1379.631 847.552 C 1387.893 847.552 1394.729 845.52 1400.119 841.438 C 1405.51 837.356 1409.334 831.102 1411.67 822.7 L 1396.572 817.915 C 1395.264 823.567 1393.115 827.696 1390.15 830.31 L 1390.151 830.308 Z"/>
    </g>
  </g>
</svg>