<?xml version="1.0" encoding="utf-8"?>
<svg viewBox="0 688.75 411.25 411.25" xmlns="http://www.w3.org/2000/svg">
  <g>
    <g transform="matrix(1, 0, 0, 1, -144.375, 544.375)">
      <path d="M 472.5 144.375 L 227.5 144.375 C 205.461 144.402 184.332 153.168 168.75 168.75 C 153.168 184.332 144.402 205.461 144.375 227.5 L 144.375 472.5 C 144.402 494.539 153.168 515.668 168.75 531.25 C 184.332 546.832 205.461 555.598 227.5 555.625 L 472.5 555.625 C 494.539 555.598 515.668 546.832 531.25 531.25 C 546.832 515.668 555.598 494.539 555.625 472.5 L 555.625 227.5 C 555.597 205.461 546.832 184.332 531.25 168.75 C 515.668 153.168 494.539 144.402 472.5 144.375 Z M 529.375 472.495 C 529.355 487.573 523.359 502.03 512.695 512.69 C 502.035 523.354 487.578 529.35 472.5 529.37 L 227.5 529.37 C 212.422 529.35 197.965 523.354 187.305 512.69 C 176.641 502.03 170.645 487.573 170.625 472.495 L 170.625 227.495 C 170.644 212.417 176.64 197.96 187.305 187.3 C 197.965 176.636 212.422 170.64 227.5 170.62 L 472.5 170.62 C 487.578 170.639 502.035 176.635 512.695 187.3 C 523.359 197.96 529.355 212.417 529.375 227.495 L 529.375 472.495 Z" style=""/>
      <path d="M 335.327 193.16 C 331.53 204.679 335.08 217.801 332.419 229.634 C 331.538 233.551 324.888 232.538 325.075 239.625 C 324.298 255.625 324.753 272.212 322.375 288.625 C 322.156 290.135 314.375 287.625 314.754 292.889 C 314.375 297.625 322.445 295.001 322.349 296.626 C 317.8 373.441 310.741 433.164 322.083 500 C 324.023 511.43 354.777 511.404 356.863 500 C 369.061 433.31 362.381 366.738 359.283 296.626 C 359.219 295.187 366.366 298.272 366.375 292.965 C 366.375 287.625 359.473 289.956 359.275 288.625 C 356.833 272.208 357.578 255.47 355.875 239.625 C 355.255 233.856 349.964 233.232 348.975 229.625 C 346.024 217.612 348.676 204.564 344.375 193.16 C 343.311 190.338 336.271 190.296 335.327 193.16 Z"/>
      <text style="font-family: Arial, sans-serif; font-size: 119px; font-weight: 700; white-space: pre;" transform="matrix(0.671577, 0, 0, 0.59466, 143.167694, 133.633484)" x="412.466" y="207.856">V</text>
      <text style="font-family: Arial, sans-serif; font-size: 119px; font-weight: 700; white-space: pre;" transform="matrix(0.671577, 0, 0, 0.59466, 31.553038, 93.847458)"><tspan x="578.664" y="408.161">Ω</tspan><tspan x="578.664" dy="1em">​</tspan><tspan x="578.664" dy="1em">​</tspan></text>
      <polygon style="stroke: rgb(0, 0, 0); fill: rgb(4, 4, 4);" points="412.291 388.505 436.277 388.505 436.277 366.738 460.262 388.505 460.262 366.738 468.258 366.738 468.258 388.505 484.248 388.505 484.248 395.76 468.258 395.76 468.258 417.527 460.262 417.527 460.262 395.76 436.277 417.527 436.277 395.76 412.291 395.76"/>
      <path d="M 231 192.344 C 227.203 203.863 230.753 216.985 228.092 228.818 C 227.211 232.735 220.561 231.722 220.748 238.809 C 219.971 254.809 220.426 271.396 218.048 287.809 C 217.829 289.319 210.048 286.809 210.427 292.073 C 210.048 296.809 218.118 294.185 218.022 295.81 C 213.473 372.625 206.414 432.348 217.756 499.184 C 219.696 510.614 250.45 510.588 252.536 499.184 C 264.734 432.494 258.054 365.922 254.956 295.81 C 254.892 294.371 262.039 297.456 262.048 292.149 C 262.048 286.809 255.146 289.14 254.948 287.809 C 252.506 271.392 253.251 254.654 251.548 238.809 C 250.928 233.04 245.637 232.416 244.648 228.809 C 241.697 216.796 244.349 203.748 240.048 192.344 C 238.984 189.522 231.944 189.48 231 192.344 Z"/>
    </g>
  </g>
</svg>