<?xml version="1.0" encoding="utf-8"?>
<svg viewBox="144.375 1038.258 411.25 411.25" xmlns="http://www.w3.org/2000/svg">
  <path d="M 472.5 1038.258 L 227.5 1038.258 C 205.461 1038.285 184.332 1047.051 168.75 1062.633 C 153.168 1078.215 144.402 1099.344 144.375 1121.383 L 144.375 1366.383 C 144.403 1388.422 153.168 1409.551 168.75 1425.133 C 184.332 1440.715 205.461 1449.481 227.5 1449.508 L 472.5 1449.508 C 494.539 1449.48 515.668 1440.715 531.25 1425.133 C 546.832 1409.551 555.598 1388.422 555.625 1366.383 L 555.625 1121.383 C 555.598 1099.344 546.832 1078.215 531.25 1062.633 C 515.668 1047.051 494.539 1038.285 472.5 1038.258 Z M 529.375 1366.378 C 529.356 1381.456 523.36 1395.913 512.695 1406.573 C 502.035 1417.237 487.578 1423.233 472.5 1423.253 L 227.5 1423.253 C 212.422 1423.233 197.965 1417.237 187.305 1406.573 C 176.641 1395.913 170.645 1381.456 170.625 1366.378 L 170.625 1121.378 C 170.645 1106.3 176.641 1091.843 187.305 1081.183 C 197.965 1070.519 212.422 1064.523 227.5 1064.503 L 472.5 1064.503 C 487.578 1064.522 502.035 1070.518 512.695 1081.183 C 523.359 1091.843 529.355 1106.3 529.375 1121.378 L 529.375 1366.378 Z M 375.805 1224.348 L 375.805 1339.848 C 375.805 1342.168 374.883 1344.395 373.243 1346.035 C 371.602 1347.676 369.375 1348.598 367.055 1348.598 L 332.93 1348.598 C 328.098 1348.598 324.18 1344.68 324.18 1339.848 L 324.18 1224.348 C 324.18 1219.516 328.098 1215.598 332.93 1215.598 L 367.055 1215.598 C 371.887 1215.598 375.805 1219.516 375.805 1224.348 Z M 375.805 1164.934 L 375.805 1164.938 C 375.805 1171.781 373.086 1178.344 368.247 1183.184 C 363.407 1188.023 356.845 1190.738 350.001 1190.738 C 343.157 1190.738 336.595 1188.023 331.755 1183.184 C 326.915 1178.344 324.196 1171.782 324.196 1164.938 C 324.196 1158.094 326.915 1151.532 331.755 1146.692 C 336.594 1141.852 343.157 1139.133 350.001 1139.133 C 356.845 1139.133 363.407 1141.852 368.247 1146.692 C 373.087 1151.531 375.805 1158.094 375.805 1164.938 L 375.805 1164.934 Z"/>
</svg>