<?xml version="1.0" encoding="utf-8"?>
<svg viewBox="888.75 555.625 411.25 411.25" xmlns="http://www.w3.org/2000/svg">
  <g transform="matrix(1, 0, 0, 1, 293.520996, -131.192993)">
    <path d="M 923.354 686.818 L 678.354 686.818 C 656.315 686.845 635.186 695.611 619.604 711.193 C 604.022 726.775 595.256 747.904 595.229 769.943 L 595.229 1014.943 C 595.256 1036.982 604.022 1058.111 619.604 1073.693 C 635.186 1089.275 656.315 1098.041 678.354 1098.068 L 923.354 1098.068 C 945.393 1098.041 966.522 1089.275 982.104 1073.693 C 997.686 1058.111 1006.452 1036.982 1006.479 1014.943 L 1006.479 769.943 C 1006.451 747.904 997.686 726.775 982.104 711.193 C 966.522 695.611 945.393 686.845 923.354 686.818 Z M 980.229 1014.938 C 980.209 1030.016 974.213 1044.473 963.549 1055.133 C 952.889 1065.797 938.432 1071.793 923.354 1071.813 L 678.354 1071.813 C 663.276 1071.793 648.819 1065.797 638.159 1055.133 C 627.495 1044.473 621.499 1030.016 621.479 1014.938 L 621.479 769.938 C 621.498 754.86 627.494 740.403 638.159 729.743 C 648.819 719.079 663.276 713.083 678.354 713.063 L 923.354 713.063 C 938.432 713.082 952.889 719.078 963.549 729.743 C 974.213 740.403 980.209 754.86 980.229 769.938 L 980.229 1014.938 Z"/>
    <path d="M 800.854 788.342 C 732.891 788.342 673.8 829.801 643.595 890.817 L 800.854 996.545 L 958.114 890.817 C 927.906 829.798 868.819 788.342 800.854 788.342 Z M 804.896 963.27 L 757.901 860.599 L 736.594 872.239 L 770.012 945.258 L 676.641 882.486 C 705.639 839.962 751.475 814.369 800.854 814.369 C 850.234 814.369 896.071 839.962 925.068 882.489 L 804.896 963.27 Z" style=""/>
  </g>
</svg>