<?xml version="1.0" encoding="utf-8"?>
<svg viewBox="1800 88.75 411.25 411.25" xmlns="http://www.w3.org/2000/svg">
  <g transform="matrix(1, 0, 0, 1, 1655.625, -55.625)">
    <g>
      <path d="M 472.5 144.375 L 227.5 144.375 C 205.461 144.402 184.332 153.168 168.75 168.75 C 153.168 184.332 144.402 205.461 144.375 227.5 L 144.375 472.5 C 144.402 494.539 153.168 515.668 168.75 531.25 C 184.332 546.832 205.461 555.598 227.5 555.625 L 472.5 555.625 C 494.539 555.598 515.668 546.832 531.25 531.25 C 546.832 515.668 555.598 494.539 555.625 472.5 L 555.625 227.5 C 555.597 205.461 546.832 184.332 531.25 168.75 C 515.668 153.168 494.539 144.402 472.5 144.375 Z M 529.375 472.495 C 529.355 487.573 523.359 502.03 512.695 512.69 C 502.035 523.354 487.578 529.35 472.5 529.37 L 227.5 529.37 C 212.422 529.35 197.965 523.354 187.305 512.69 C 176.641 502.03 170.645 487.573 170.625 472.495 L 170.625 227.495 C 170.644 212.417 176.64 197.96 187.305 187.3 C 197.965 176.636 212.422 170.64 227.5 170.62 L 472.5 170.62 C 487.578 170.639 502.035 176.635 512.695 187.3 C 523.359 197.96 529.355 212.417 529.375 227.495 L 529.375 472.495 Z"/>
    </g>
    <g transform="matrix(1, 0, 0, 1, -670.50354, 11.20401)">
      <path d="M 958.062 361.422 C 955.073 364.059 951.526 365.363 947.398 365.363 C 941.796 365.363 937.226 363.285 933.726 359.156 C 930.226 355.027 928.476 348.074 928.476 338.344 C 928.476 329.172 930.249 322.524 933.819 318.418 C 937.39 314.313 942.011 312.258 947.725 312.258 C 951.854 312.258 955.378 313.426 958.272 315.735 C 961.167 318.043 963.058 321.196 963.964 325.207 L 979.362 321.52 C 977.612 315.36 974.975 310.622 971.475 307.332 C 965.596 301.754 957.916 298.98 948.514 298.98 C 937.709 298.98 929.006 302.527 922.381 309.621 C 915.76 316.715 912.424 326.68 912.424 339.512 C 912.424 351.645 915.713 361.188 922.319 368.188 C 928.897 375.188 937.323 378.665 947.542 378.665 C 955.803 378.665 962.64 376.634 968.03 372.552 C 973.42 368.47 977.244 362.216 979.581 353.814 L 964.483 349.029 C 963.174 354.681 961.026 358.81 958.061 361.424 L 958.062 361.422 Z"/>
      <path d="M 1040.032 334.772 C 1036.414 332.858 1030.817 331.014 1023.231 329.217 C 1015.649 327.42 1010.887 325.717 1008.926 324.061 C 1007.386 322.752 1006.617 321.213 1006.617 319.37 C 1006.617 317.362 1007.433 315.776 1009.09 314.584 C 1011.656 312.717 1015.179 311.807 1019.707 311.807 C 1024.093 311.807 1027.382 312.67 1029.554 314.42 C 1031.726 316.17 1033.172 318.995 1033.847 322.959 L 1049.409 322.284 C 1049.152 315.213 1046.585 309.546 1041.71 305.296 C 1036.835 301.05 1029.53 298.925 1019.87 298.925 C 1013.944 298.925 1008.882 299.811 1004.702 301.608 C 1000.503 303.405 997.304 305.995 995.089 309.425 C 992.874 312.831 991.753 316.518 991.753 320.437 C 991.753 326.526 994.108 331.707 998.847 335.953 C 1002.206 338.964 1008.062 341.507 1016.417 343.581 C 1022.905 345.191 1027.058 346.312 1028.878 346.941 C 1031.538 347.898 1033.405 348.996 1034.479 350.277 C 1035.554 351.562 1036.089 353.101 1036.089 354.921 C 1036.089 357.769 1034.827 360.242 1032.284 362.363 C 1029.741 364.488 1025.96 365.535 1020.968 365.535 C 1016.23 365.535 1012.476 364.343 1009.698 361.964 C 1006.921 359.585 1005.054 355.851 1004.143 350.765 L 988.998 352.234 C 990.026 360.867 993.127 367.425 998.354 371.925 C 1003.58 376.429 1011.045 378.667 1020.799 378.667 C 1027.494 378.667 1033.072 377.734 1037.576 375.843 C 1042.056 373.976 1045.533 371.105 1047.982 367.257 C 1050.431 363.406 1051.669 359.277 1051.669 354.843 C 1051.669 349.968 1050.642 345.882 1048.591 342.57 C 1046.49 339.301 1043.669 336.687 1040.029 334.773 L 1040.032 334.772 Z"/>
      <path d="M 1093.212 357.342 L 1073.704 300.291 L 1056.833 300.291 L 1084.368 377.361 L 1100.981 377.361 L 1128.583 300.291 L 1112.063 300.291 L 1093.212 357.342 Z"/>
    </g>
  </g>
</svg>