<?xml version="1.0" encoding="utf-8"?>
<svg viewBox="1358.615 88.75 411.25 411.25" xmlns="http://www.w3.org/2000/svg">
  <g transform="matrix(1, 0, 0, 1, 1214.239746, -55.625)">
    <path d="M 472.5 144.375 L 227.5 144.375 C 205.461 144.402 184.332 153.168 168.75 168.75 C 153.168 184.332 144.402 205.461 144.375 227.5 L 144.375 472.5 C 144.402 494.539 153.168 515.668 168.75 531.25 C 184.332 546.832 205.461 555.598 227.5 555.625 L 472.5 555.625 C 494.539 555.598 515.668 546.832 531.25 531.25 C 546.832 515.668 555.598 494.539 555.625 472.5 L 555.625 227.5 C 555.597 205.461 546.832 184.332 531.25 168.75 C 515.668 153.168 494.539 144.402 472.5 144.375 Z M 529.375 472.495 C 529.355 487.573 523.359 502.03 512.695 512.69 C 502.035 523.354 487.578 529.35 472.5 529.37 L 227.5 529.37 C 212.422 529.35 197.965 523.354 187.305 512.69 C 176.641 502.03 170.645 487.573 170.625 472.495 L 170.625 227.495 C 170.644 212.417 176.64 197.96 187.305 187.3 C 197.965 176.636 212.422 170.64 227.5 170.62 L 472.5 170.62 C 487.578 170.639 502.035 176.635 512.695 187.3 C 523.359 197.96 529.355 212.417 529.375 227.495 L 529.375 472.495 Z"/>
    <g transform="matrix(1, 0, 0, 1, -786.497498, -11.007507)">
      <path d="M 1106.969 393.474 C 1112.406 393.474 1117.352 392.494 1121.809 390.533 C 1127.481 394.361 1130.535 396.365 1130.981 396.576 C 1132.965 397.673 1134.992 398.513 1137.07 399.142 L 1142.133 389.412 C 1138.168 387.99 1134.481 386.052 1131.098 383.65 C 1133.828 380.455 1135.813 377.138 1137.047 373.732 C 1138.68 369.275 1139.52 364.072 1139.52 358.193 C 1139.52 347.064 1136.555 338.384 1130.629 332.201 C 1124.703 326.017 1116.676 322.916 1106.57 322.916 C 1096.375 322.916 1088.277 326.017 1082.328 332.201 C 1076.379 338.385 1073.391 347.064 1073.391 358.193 C 1073.391 369.369 1076.356 378.025 1082.305 384.209 C 1088.258 390.393 1096.469 393.475 1106.969 393.475 L 1106.969 393.474 Z M 1092.852 340.552 C 1096.352 336.63 1100.903 334.697 1106.5 334.697 C 1112.101 334.697 1116.648 336.634 1120.125 340.529 C 1123.601 344.427 1125.328 350.306 1125.328 358.193 C 1125.328 362.021 1124.886 365.38 1124 368.341 C 1123.113 371.305 1121.785 373.802 1120.011 375.876 C 1115.883 372.774 1111.566 370.438 1107.038 368.899 L 1103.163 376.763 C 1106.058 377.79 1108.878 379.212 1111.679 381.032 C 1109.906 381.684 1108.038 382.012 1106.054 382.012 C 1100.71 382.012 1096.3 380.028 1092.824 376.087 C 1089.347 372.145 1087.597 366.169 1087.597 358.189 C 1087.601 350.353 1089.351 344.474 1092.851 340.552 L 1092.852 340.552 Z"/>
      <path d="M 1001.932 339.036 L 1017.147 399.54 L 1032.081 399.54 L 1047.339 339.036 L 1047.339 399.54 L 1061.761 399.54 L 1061.761 322.657 L 1038.476 322.657 L 1024.683 375.11 L 1010.73 322.657 L 987.515 322.657 L 987.515 399.54 L 1001.933 399.54 L 1001.932 339.036 Z"/>
      <path d="M 1247.214 399.358 L 1262.73 399.358 L 1262.73 335.495 L 1285.48 335.495 L 1285.48 322.475 L 1224.394 322.475 L 1224.394 335.495 L 1247.214 335.495 L 1247.214 399.358 Z"/>
      <path d="M 1174.379 399.479 L 1189.895 399.479 L 1189.895 335.616 L 1212.645 335.616 L 1212.645 322.596 L 1151.559 322.596 L 1151.559 335.616 L 1174.379 335.616 L 1174.379 399.479 Z"/>
    </g>
  </g>
</svg>