<?xml version="1.0" encoding="utf-8"?>
<svg viewBox="144.375 144.375 411.25 411.25" xmlns="http://www.w3.org/2000/svg">
  <g>
    <path d="M 456.912 250 L 243.088 250 C 234.652 250 227.815 257.462 227.815 266.667 C 227.815 275.873 234.652 283.335 243.088 283.335 L 456.912 283.335 C 465.348 283.335 472.185 275.873 472.185 266.667 C 472.185 257.462 465.348 250 456.912 250 Z" style=""/>
    <path d="M 456.912 333.333 L 243.088 333.333 C 234.652 333.333 227.815 340.795 227.815 350.001 C 227.815 359.206 234.652 366.668 243.088 366.668 L 456.912 366.668 C 465.348 366.668 472.185 359.206 472.185 350.001 C 472.185 340.795 465.348 333.333 456.912 333.333 Z" style=""/>
    <path d="M 243.088 416.665 L 456.912 416.665 C 465.348 416.665 472.185 424.126 472.185 433.333 C 472.185 442.538 465.348 450 456.912 450 L 243.088 450 C 234.652 450 227.815 442.538 227.815 433.333 C 227.815 424.126 234.652 416.665 243.088 416.665 Z" style=""/>
    <path d="M 472.5 144.375 L 227.5 144.375 C 205.461 144.402 184.332 153.168 168.75 168.75 C 153.168 184.332 144.402 205.461 144.375 227.5 L 144.375 472.5 C 144.402 494.539 153.168 515.668 168.75 531.25 C 184.332 546.832 205.461 555.598 227.5 555.625 L 472.5 555.625 C 494.539 555.598 515.668 546.832 531.25 531.25 C 546.832 515.668 555.598 494.539 555.625 472.5 L 555.625 227.5 C 555.597 205.461 546.832 184.332 531.25 168.75 C 515.668 153.168 494.539 144.402 472.5 144.375 Z M 529.375 472.495 C 529.355 487.573 523.359 502.03 512.695 512.69 C 502.035 523.354 487.578 529.35 472.5 529.37 L 227.5 529.37 C 212.422 529.35 197.965 523.354 187.305 512.69 C 176.641 502.03 170.645 487.573 170.625 472.495 L 170.625 227.495 C 170.644 212.417 176.64 197.96 187.305 187.3 C 197.965 176.636 212.422 170.64 227.5 170.62 L 472.5 170.62 C 487.578 170.639 502.035 176.635 512.695 187.3 C 523.359 197.96 529.355 212.417 529.375 227.495 L 529.375 472.495 Z"/>
  </g>
</svg>