<?xml version="1.0" standalone="no"?>
<!DOCTYPE svg PUBLIC "-//W3C//DTD SVG 20010904//EN"
 "http://www.w3.org/TR/2001/REC-SVG-20010904/DTD/svg10.dtd">
<svg version="1.0" xmlns="http://www.w3.org/2000/svg"
 width="936.000000pt" height="804.000000pt" viewBox="0 0 936.000000 804.000000"
 preserveAspectRatio="xMidYMid meet">

<g transform="translate(0.000000,804.000000) scale(0.100000,-0.100000)"
fill="#000000" stroke="none">
<path d="M1410 4020 l0 -3270 3270 0 3270 0 0 3270 0 3270 -3270 0 -3270 0 0
-3270z m5620 2885 c0 -23 3 -25 50 -25 47 0 50 -2 50 -25 0 -23 3 -25 50 -25
47 0 50 -2 50 -25 0 -20 5 -25 25 -25 20 0 25 -5 25 -25 0 -21 5 -25 30 -25
25 0 30 -4 30 -25 0 -20 5 -25 25 -25 21 0 25 -5 25 -30 0 -25 4 -30 25 -30
20 0 25 -5 25 -25 0 -20 5 -25 25 -25 23 0 25 -3 25 -50 0 -47 2 -50 25 -50
24 0 25 -2 25 -75 0 -73 1 -75 25 -75 l25 0 0 -2325 0 -2325 -25 0 c-23 0 -25
-3 -25 -50 0 -47 -2 -50 -25 -50 -23 0 -25 -3 -25 -50 0 -47 -2 -50 -25 -50
-24 0 -25 -3 -25 -55 0 -52 -1 -55 -25 -55 -20 0 -25 -5 -25 -25 0 -20 -5 -25
-25 -25 -20 0 -25 -5 -25 -25 0 -24 -3 -25 -55 -25 -52 0 -55 -1 -55 -25 0
-20 -5 -25 -25 -25 -20 0 -25 -5 -25 -25 0 -23 -3 -25 -50 -25 -47 0 -50 -2
-50 -25 0 -23 -3 -25 -50 -25 -47 0 -50 -2 -50 -25 l0 -25 -2350 0 -2350 0 0
25 c0 23 -3 25 -50 25 -47 0 -50 2 -50 25 0 23 -3 25 -50 25 -47 0 -50 2 -50
25 0 21 -5 25 -30 25 -25 0 -30 4 -30 25 0 20 -5 25 -25 25 -20 0 -25 5 -25
25 0 20 -5 25 -25 25 -20 0 -25 5 -25 25 0 20 -5 25 -25 25 -21 0 -25 5 -25
30 0 25 -4 30 -25 30 -23 0 -25 3 -25 50 0 47 -2 50 -25 50 -23 0 -25 3 -25
50 0 47 -2 50 -25 50 l-25 0 0 2375 0 2375 25 0 c23 0 25 3 25 50 0 47 2 50
25 50 23 0 25 3 25 50 0 47 2 50 25 50 20 0 25 5 25 25 0 20 5 25 25 25 21 0
25 5 25 30 0 25 4 30 25 30 20 0 25 5 25 25 0 20 5 25 25 25 20 0 25 5 25 25
0 21 5 25 30 25 25 0 30 4 30 25 0 23 3 25 50 25 47 0 50 2 50 25 0 24 2 25
75 25 73 0 75 1 75 25 l0 25 2350 0 2350 0 0 -25z m660 -50 c0 -20 5 -25 25
-25 20 0 25 -5 25 -25 0 -20 -5 -25 -25 -25 -20 0 -25 5 -25 25 0 20 -5 25
-25 25 -20 0 -25 5 -25 25 0 20 5 25 25 25 20 0 25 -5 25 -25z m-200 -150 c0
-20 5 -25 25 -25 21 0 25 -5 25 -30 0 -25 -4 -30 -25 -30 -21 0 -25 5 -25 30
0 25 -4 30 -25 30 -20 0 -25 5 -25 25 0 20 5 25 25 25 20 0 25 -5 25 -25z
m310 0 c0 -21 -5 -25 -30 -25 -25 0 -30 4 -30 25 0 21 5 25 30 25 25 0 30 -4
30 -25z m50 -110 c0 -20 -5 -25 -25 -25 -20 0 -25 5 -25 25 0 20 5 25 25 25
20 0 25 -5 25 -25z m-6180 -5260 c0 -20 -5 -25 -25 -25 -20 0 -25 5 -25 25 0
20 5 25 25 25 20 0 25 -5 25 -25z m50 -100 c0 -20 5 -25 25 -25 20 0 25 -5 25
-25 0 -20 5 -25 25 -25 20 0 25 -5 25 -25 0 -20 5 -25 25 -25 20 0 25 -5 25
-25 0 -20 5 -25 25 -25 20 0 25 -5 25 -25 0 -20 -5 -25 -25 -25 -20 0 -25 5
-25 25 0 20 -5 25 -25 25 -20 0 -25 5 -25 25 0 20 -5 25 -25 25 -20 0 -25 5
-25 25 0 20 -5 25 -25 25 -20 0 -25 5 -25 25 0 20 -5 25 -25 25 -20 0 -25 5
-25 25 0 20 5 25 25 25 20 0 25 -5 25 -25z"/>
<path d="M2990 6395 c0 -21 5 -25 30 -25 25 0 30 4 30 25 0 21 -5 25 -30 25
-25 0 -30 -4 -30 -25z"/>
<path d="M4580 6395 c0 -20 5 -25 25 -25 20 0 25 5 25 25 0 20 -5 25 -25 25
-20 0 -25 -5 -25 -25z"/>
<path d="M2940 6165 l0 -105 -25 0 -25 0 0 -150 0 -150 -25 0 c-25 0 -25 -1
-25 -80 0 -79 0 -80 -25 -80 l-25 0 0 -255 0 -255 -25 0 -25 0 0 -150 0 -150
-50 0 -50 0 0 -80 0 -80 50 0 50 0 0 -1710 0 -1710 255 0 255 0 0 640 0 640
25 0 25 0 0 510 0 510 -25 0 c-20 0 -25 5 -25 25 0 20 5 25 25 25 l25 0 0 535
0 535 50 0 50 0 0 80 0 80 -50 0 -50 0 0 175 0 175 -25 0 -25 0 0 285 0 285
-25 0 c-20 0 -25 5 -25 25 0 20 -5 25 -25 25 l-25 0 0 255 0 255 -105 0 -105
0 0 -105z"/>
<path d="M4530 6165 l0 -105 -25 0 -25 0 0 -150 0 -150 -30 0 -30 0 0 -80 c0
-79 0 -80 -25 -80 l-25 0 0 -230 0 -230 -25 0 -25 0 0 -150 0 -150 -25 0 c-20
0 -25 -5 -25 -25 0 -20 -5 -25 -25 -25 -25 0 -25 -1 -25 -80 l0 -80 50 0 50 0
0 -585 0 -585 -25 0 -25 0 0 -1125 0 -1125 75 0 c73 0 75 1 75 25 0 24 3 25
55 25 52 0 55 -1 55 -25 0 -20 5 -25 25 -25 20 0 25 5 25 25 0 23 3 25 50 25
47 0 50 -2 50 -25 0 -20 5 -25 25 -25 20 0 25 5 25 25 0 20 5 25 25 25 l25 0
0 615 0 615 25 0 25 0 0 920 0 920 25 0 25 0 0 150 0 150 30 0 c25 0 30 4 30
25 0 20 5 25 25 25 21 0 25 5 25 30 0 25 -4 30 -25 30 -20 0 -25 5 -25 25 0
21 -5 25 -30 25 l-30 0 0 75 c0 73 -1 75 -25 75 l-25 0 0 330 0 330 -25 0
c-25 0 -25 1 -25 80 0 79 0 80 -25 80 l-25 0 0 230 0 230 -25 0 c-20 0 -25 5
-25 25 0 24 -2 25 -75 25 l-75 0 0 -105z"/>
</g>
</svg>
