<?xml version="1.0" encoding="UTF-8" standalone="no"?>
<!-- Created with Inkscape (http://www.inkscape.org/) -->

<svg
   width="270.43298"
   height="54.784191"
   id="svg2"
   sodipodi:version="0.32"
   inkscape:version="1.2 (dc2aedaf03, 2022-05-15)"
   sodipodi:docname="Degree-Radian_Conversion1.svg"
   inkscape:output_extension="org.inkscape.output.svg.inkscape"
   version="1.0"
   inkscape:export-filename="Degree-Radian_Conversion1.png"
   inkscape:export-xdpi="181.46242"
   inkscape:export-ydpi="181.46242"
   xml:space="preserve"
   xmlns:inkscape="http://www.inkscape.org/namespaces/inkscape"
   xmlns:sodipodi="http://sodipodi.sourceforge.net/DTD/sodipodi-0.dtd"
   xmlns="http://www.w3.org/2000/svg"
   xmlns:svg="http://www.w3.org/2000/svg"
   xmlns:rdf="http://www.w3.org/1999/02/22-rdf-syntax-ns#"
   xmlns:cc="http://creativecommons.org/ns#"
   xmlns:dc="http://purl.org/dc/elements/1.1/"><defs
     id="defs4"><inkscape:perspective
       sodipodi:type="inkscape:persp3d"
       inkscape:vp_x="0 : -119.03472 : 1"
       inkscape:vp_y="0 : 1000 : 0"
       inkscape:vp_z="744.09448 : -119.03472 : 1"
       inkscape:persp3d-origin="372.04724 : -294.42842 : 1"
       id="perspective10" /><inkscape:perspective
       id="perspective2454"
       inkscape:persp3d-origin="24 : -629.21581 : 1"
       inkscape:vp_z="48 : -621.21581 : 1"
       inkscape:vp_y="0 : 1000 : 0"
       inkscape:vp_x="0 : -621.21581 : 1"
       sodipodi:type="inkscape:persp3d" /><clipPath
       clipPathUnits="userSpaceOnUse"
       id="clipPath2897"><path
         style="fill:#d3d7cf;fill-opacity:1;stroke:none;stroke-width:2;stroke-linecap:square;stroke-miterlimit:4;stroke-dasharray:none;stroke-dashoffset:0;stroke-opacity:1"
         d="m 290.19739,65.923927 c 8.89768,0.116987 17.89797,1.228683 26.26269,4.372558 2.86919,1.190971 5.93302,2.533094 7.83785,5.101568 0.98278,1.255466 0.97656,3.139361 -0.11837,4.324716 -2.16131,2.565689 -5.4038,3.849247 -8.45339,5.012891 -7.98095,2.773052 -16.44223,3.916281 -24.85783,4.319612 -10.21894,0.253772 -20.69084,-0.637554 -30.21002,-4.601359 -3.7362,-1.591162 -7.32536,-3.689352 -10.26969,-6.494691 -0.49601,-0.838188 0.72658,-1.23478 1.21624,-1.704304 6.73717,-4.861757 14.80445,-7.571842 22.91542,-9.076192 5.16759,-0.917666 10.42903,-1.29014 15.6771,-1.254799 z"
         id="path2899" /></clipPath><inkscape:perspective
       id="perspective3003"
       inkscape:persp3d-origin="24 : -629.21581 : 1"
       inkscape:vp_z="48 : -621.21581 : 1"
       inkscape:vp_y="0 : 1000 : 0"
       inkscape:vp_x="0 : -621.21581 : 1"
       sodipodi:type="inkscape:persp3d" /></defs><sodipodi:namedview
     id="base"
     pagecolor="#ffffff"
     bordercolor="#666666"
     borderopacity="1.0"
     gridtolerance="10000"
     guidetolerance="10"
     objecttolerance="10"
     inkscape:pageopacity="0.0"
     inkscape:pageshadow="2"
     inkscape:zoom="4.803113"
     inkscape:cx="133.97561"
     inkscape:cy="31.437945"
     inkscape:document-units="px"
     inkscape:current-layer="layer1"
     showgrid="true"
     inkscape:window-width="1920"
     inkscape:window-height="1017"
     inkscape:window-x="1912"
     inkscape:window-y="-8"
     showguides="true"
     inkscape:guide-bbox="true"
     inkscape:showpageshadow="2"
     inkscape:pagecheckerboard="0"
     inkscape:deskcolor="#d1d1d1"
     inkscape:window-maximized="1"><inkscape:grid
       type="xygrid"
       id="grid2383"
       visible="true"
       enabled="true"
       originx="-201.31869"
       originy="-83.860999" /></sodipodi:namedview><metadata
     id="metadata7"><rdf:RDF><cc:Work
         rdf:about=""><dc:format>image/svg+xml</dc:format><dc:type
           rdf:resource="http://purl.org/dc/dcmitype/StillImage" /></cc:Work></rdf:RDF></metadata><g
     inkscape:label="Layer 1"
     inkscape:groupmode="layer"
     id="layer1"
     transform="translate(-66.13266,55.979901)"><path
       style="display:inline;fill:none;stroke:#000000;stroke-width:1.95569;stroke-linecap:square"
       d="M 80.941831,-2.4715928 C 116.0761,-22.769617 156.85616,-34.385055 200.34915,-34.385056 c 44.07072,-1e-6 86.01297,10.844877 120.80443,32.7269262"
       id="path3363"
       sodipodi:nodetypes="csc" /><path
       id="path4655"
       style="display:inline;fill:none;fill-rule:evenodd;stroke:#000000;stroke-width:0.5;stroke-linecap:butt;stroke-linejoin:miter;stroke-opacity:1"
       d="m 119.95707,-30.720772 3.25784,9.461455 m 0.87995,-10.845939 2.91094,8.958938 m 1.2504,-10.270992 2.94662,9.63797 m 1.23695,-10.877219 2.64788,9.234264 m 5.78097,-11.492762 2.48079,9.94991 m 1.76192,-10.968494 2.20787,9.563318 m 2.052,-10.507697 2.04163,9.605113 m 2.23404,-10.475007 1.86949,9.617671 m -75.369666,17.134182 4.712805,8.5021243 m -0.878283,-10.5840943 4.677955,8.7979516 m -0.807665,-10.8126826 4.470953,8.7747389 m -0.566125,-10.7216289 4.356781,8.932722 m 3.551844,-12.62056 4.064541,9.129103 m -0.0632,-10.868952 3.9996,9.422459 m 0.0316,-11.092207 3.76717,9.324081 m 0.29247,-10.923235 3.57025,9.300817 m 175.6137,-9.300878 -3.47386,9.049723 m 7.53354,-7.450561 -3.57946,8.859474 m 7.61058,-7.189743 -4.06318,9.572249 m 8.06455,-7.832381 -3.98718,8.955354 m 11.89582,-5.267503 -4.51883,9.2649736 m 8.42369,-7.3180786 -4.72361,9.2706064 m 8.59385,-7.2559094 -4.89645,9.2088867 m 8.73096,-7.1268917 -5.0851,9.1737609 m -68.41503,-35.9256059 -1.96374,10.102557 m 6.2394,-9.232677 -2.11097,9.931365 m 6.37082,-8.986988 -2.29914,9.958669 m 6.54184,-8.940063 -2.41973,9.705028 m 10.8486,-7.44654 -2.64018,9.207387 m 6.82377,-7.968149 -2.83021,9.257192 m 6.99152,-7.94514 -2.88952,8.893015 m 7.02732,-7.508517 -3.08764,8.967161 m -73.94126,-22.549411 -0.18449,10.569143 m 4.54624,-10.454937 -0.36544,10.464869 m 4.72455,-10.274552 -0.54858,10.467569 m 4.90372,-10.201178 -0.71238,10.187471 m 9.40538,-9.426937 -1.03644,9.861033 m 5.37166,-9.367098 -1.22037,9.939147 m 5.54631,-9.369617 -1.40716,10.012503 m 5.7225,-9.367582 -1.52212,9.610278 m -76.69516,-9.610276 1.51703,9.578121 m 2.7983,-10.223061 1.41121,10.041225 m 2.91476,-10.610732 1.24556,10.144254 m 3.08965,-10.638203 1.05581,10.045329 m 7.63717,-10.805862 0.71238,10.187485 m 3.64275,-10.453854 0.52568,10.03054 m 3.83345,-10.220858 0.35041,10.034445 m 4.01136,-10.148663 0.18085,10.361007 m 26.52075,-15.443445 -1.42215,16.255218 m 45.37072,-8.501493 -4.1111,15.342827 m 46.04562,-0.07533 -6.67101,14.306015 m -209.727043,-14.32697 6.830483,14.648015 m 35.10695,-29.907402 4.12505,15.394881 m 39.82505,-23.140082 1.40249,16.030516 m 66.2693,-18.360358 -3.7129,21.056905 m 47.33941,-8.22945 -6.76209,18.578668 m -171.40869,-18.996666 7.02985,19.314347 m 36.71542,-31.913147 3.72324,21.115539 m 41.6929,-25.186439 v 22.243909 m 135.00005,5.567961 c -5.16677,8.949108 -10.33354,17.898215 -15.50031,26.8473224 M 66.349166,-28.16797 81.384742,-2.1255919" /></g></svg>
